<svg width="390" height="229" viewBox="0 0 390 229" fill="none" xmlns="http://www.w3.org/2000/svg">
<g filter="url(#filter0_d_33_6019)">
<rect x="10.9857" y="10.2136" width="368.397" height="208.758" rx="15" fill="url(#paint0_linear_33_6019)" shape-rendering="crispEdges"/>
<g clip-path="url(#clip0_33_6019)">
<g clip-path="url(#clip1_33_6019)">
<path fill-rule="evenodd" clip-rule="evenodd" d="M162.901 36.3474C157.863 36.3474 153.781 40.2449 153.781 45.0552C153.781 49.2909 156.944 52.8124 161.141 53.6019C161.849 53.7384 162.299 53.8435 162.671 54.3026C163.121 53.4793 163.223 51.7373 163.223 50.7546V49.0994C163.223 48.5241 163.522 48.4126 164.073 48.7225C165.087 49.2909 166.145 49.8793 166.145 49.8793C166.181 49.5574 166.461 49.2859 167.069 49.4221C167.635 49.5574 168.268 49.6983 168.268 49.6983C168.268 49.6983 167.928 48.9278 167.775 48.5869C167.494 47.964 167.762 47.6651 168.032 47.5793C168.032 47.5793 167.646 47.317 167.391 47.1382C166.846 46.756 166.973 46.3841 167.505 46.156C168.23 45.8475 169.132 45.4385 169.132 45.4385C168.844 45.2719 168.509 44.7973 168.885 44.2513C169.254 43.7066 169.812 42.9525 169.812 42.9525C169.812 42.9525 168.829 42.9578 168.174 42.9525C167.581 42.9403 167.434 42.4693 167.44 42.1292C167.44 42.1292 166.473 42.8161 165.782 43.2835C165.202 43.6754 164.67 43.2924 164.759 42.6177C164.897 41.5608 165.022 40.3916 165.022 40.3916C164.661 40.6324 164.046 40.6271 163.774 40.0343C163.371 39.1601 162.901 38.1412 162.901 38.1412C162.901 38.1412 162.44 39.1601 162.036 40.0343C161.766 40.6271 161.147 40.6324 160.79 40.3916C160.79 40.3916 160.911 41.5608 161.051 42.6177C161.141 43.2924 160.609 43.6754 160.03 43.2835C159.338 42.8161 158.368 42.1292 158.368 42.1292C158.374 42.4693 158.232 42.9403 157.638 42.9525C156.981 42.9578 155.999 42.9525 155.999 42.9525C155.999 42.9525 156.559 43.7066 156.932 44.2513C157.303 44.7973 156.966 45.2719 156.685 45.4385C156.685 45.4385 157.584 45.8475 158.307 46.156C158.84 46.3841 158.97 46.756 158.417 47.1382C158.166 47.317 157.772 47.5793 157.772 47.5793C158.049 47.6651 158.314 47.964 158.034 48.5869C157.885 48.9278 157.541 49.6983 157.541 49.6983C157.541 49.6983 158.175 49.5574 158.743 49.4221C159.35 49.2859 159.634 49.5574 159.668 49.8793C159.668 49.8793 160.722 49.2909 161.739 48.7225C162.288 48.4126 162.585 48.5241 162.588 49.0994V50.5224C162.588 51.3443 162.441 52.2434 162.129 52.7244C158.238 52.2974 155.02 49.1752 155.012 45.0552C155.007 40.8144 158.545 37.3732 162.901 37.3732C167.258 37.3732 170.789 40.8144 170.789 45.0552C170.789 49.0192 167.718 52.2592 163.781 52.6873V53.727C168.408 53.3058 172.026 49.5829 172.026 45.0552C172.026 40.2449 167.939 36.3474 162.901 36.3474Z" fill="#F01428"/>
<path fill-rule="evenodd" clip-rule="evenodd" d="M47.7713 38.7163L42.2404 51.9333H45.7042L46.7093 49.2401H51.7364L52.7995 51.9333H56.3378L50.8626 38.7163H47.7713ZM89.0546 38.361C93.2092 38.361 96.2371 41.0495 96.2371 45.2689C96.2371 49.4128 93.2597 52.2886 89.0546 52.2886C84.8649 52.2886 81.8909 49.4064 81.8909 45.2689C81.8909 41.0799 84.8906 38.361 89.0546 38.361ZM75.2741 38.7164C78.1 38.7164 80.318 39.8762 80.318 42.7114C80.318 44.5209 79.2762 45.7602 77.5818 46.2771L81.0252 51.9334H77.3029L74.4329 46.6715H73.332V51.9334H70.2239V38.7164H75.2741ZM103.071 38.7163C106.016 38.7163 108.227 39.8203 108.227 42.7861C108.227 45.7447 105.9 46.949 102.997 46.949H101.415V51.9333H98.2322V38.7163H103.071ZM113.275 38.7163V49.1518H118.378V51.9333H110.073V38.7163H113.275ZM128.597 38.7163L134.073 51.9333H130.534L129.471 49.2401H124.444L123.439 51.9333H119.975L125.506 38.7163H128.597ZM139.327 38.7163L144.688 47.3411H144.745L144.669 38.7163H147.803V51.9333H144.141L138.76 43.2903H138.704L138.779 51.9333H135.645V38.7163H139.327ZM65.0797 49.2402L68.2783 51.9331H60.6982C57.5509 51.932 57.0899 49.2402 57.0899 49.2402H65.0797ZM89.0546 41.2352C86.9367 41.2352 85.2961 42.8386 85.2961 45.2874C85.2961 47.6519 86.8145 49.4147 89.0546 49.4147C91.2012 49.4147 92.8318 47.7554 92.8318 45.2874C92.8318 43.0085 91.3239 41.2352 89.0546 41.2352ZM49.2612 42.2448L50.8604 46.6714H47.6256L49.2612 42.2448ZM64.5326 43.9785L67.7313 46.6715H60.698C57.5507 46.6701 57.0897 43.9785 57.0897 43.9785H64.5326ZM126.996 42.2448L125.36 46.6714H128.595L126.996 42.2448ZM103.123 41.2369H101.415V44.3729H102.936C104.184 44.3729 105.256 43.9946 105.256 42.7385C105.256 41.5759 104.282 41.2369 103.123 41.2369ZM75.0401 41.2369H73.332V44.3726H74.8533C76.1013 44.3726 77.1726 43.9946 77.1726 42.7385C77.1726 41.5759 76.1995 41.2369 75.0401 41.2369ZM65.0797 38.7163L68.2783 41.4096H60.6982C57.5509 41.4082 57.0899 38.7163 57.0899 38.7163H65.0797Z" fill="white"/>
</g>
</g>
<path d="M59.112 131.478H43.6432V128.712L49.5651 122.712C50.711 121.545 51.6537 120.54 52.3932 119.696C53.1328 118.842 53.6797 118.035 54.0339 117.275C54.3985 116.514 54.5807 115.686 54.5807 114.79C54.5807 113.686 54.263 112.853 53.6276 112.29C52.9922 111.717 52.1537 111.431 51.112 111.431C50.1224 111.431 49.2057 111.629 48.362 112.025C47.5287 112.41 46.6641 112.962 45.7682 113.681L43.7526 111.259C44.388 110.717 45.0651 110.222 45.7839 109.775C46.513 109.327 47.3255 108.972 48.2214 108.712C49.1172 108.441 50.138 108.306 51.2839 108.306C52.7318 108.306 53.9818 108.566 55.0339 109.087C56.086 109.597 56.8932 110.311 57.4557 111.228C58.0287 112.144 58.3151 113.212 58.3151 114.431C58.3151 115.66 58.0703 116.795 57.5807 117.837C57.0912 118.879 56.3932 119.91 55.487 120.931C54.5807 121.941 53.5026 123.04 52.2526 124.228L48.2995 128.087V128.259H59.112V131.478ZM76.5495 113.853C76.5495 114.884 76.3412 115.78 75.9245 116.54C75.5078 117.301 74.9349 117.926 74.2057 118.415C73.487 118.894 72.6537 119.238 71.7057 119.446V119.556C73.5287 119.785 74.9037 120.358 75.8307 121.275C76.7682 122.191 77.237 123.405 77.237 124.915C77.237 126.238 76.9193 127.42 76.2839 128.462C75.6485 129.493 74.6745 130.306 73.362 130.9C72.0495 131.493 70.362 131.79 68.2995 131.79C67.0599 131.79 65.9089 131.691 64.8464 131.493C63.7943 131.295 62.7943 130.978 61.8464 130.54V127.275C62.8151 127.754 63.8464 128.123 64.9401 128.384C66.0339 128.644 67.0703 128.775 68.0495 128.775C69.9557 128.775 71.3151 128.42 72.1276 127.712C72.9401 126.993 73.3464 126.004 73.3464 124.743C73.3464 123.931 73.1328 123.264 72.7057 122.743C72.2891 122.222 71.638 121.832 70.7526 121.571C69.8776 121.311 68.7474 121.181 67.362 121.181H65.3464V118.228H67.3776C68.7005 118.228 69.763 118.071 70.5651 117.759C71.3672 117.436 71.9453 116.993 72.2995 116.431C72.6641 115.868 72.8464 115.212 72.8464 114.462C72.8464 113.483 72.5287 112.722 71.8932 112.181C71.2578 111.629 70.3151 111.353 69.0651 111.353C68.2943 111.353 67.5912 111.441 66.9557 111.618C66.3307 111.795 65.7526 112.019 65.2214 112.29C64.6901 112.561 64.1849 112.853 63.7057 113.165L61.9401 110.618C62.8047 109.972 63.836 109.426 65.0339 108.978C66.2318 108.53 67.6276 108.306 69.2214 108.306C71.5651 108.306 73.3724 108.811 74.6432 109.821C75.9141 110.821 76.5495 112.165 76.5495 113.853ZM88.0339 117.196C89.5026 117.196 90.7943 117.462 91.9089 117.993C93.0339 118.514 93.9089 119.285 94.5339 120.306C95.1589 121.316 95.4714 122.556 95.4714 124.025C95.4714 125.629 95.1328 127.014 94.4557 128.181C93.7787 129.337 92.7839 130.228 91.4714 130.853C90.1589 131.478 88.5599 131.79 86.6745 131.79C85.4766 131.79 84.3568 131.686 83.3151 131.478C82.2839 131.269 81.3932 130.957 80.6432 130.54V127.228C81.4245 127.665 82.362 128.025 83.4557 128.306C84.5495 128.577 85.5964 128.712 86.5964 128.712C87.6589 128.712 88.5703 128.556 89.3307 128.243C90.0912 127.931 90.6745 127.452 91.0807 126.806C91.4974 126.16 91.7057 125.342 91.7057 124.353C91.7057 123.04 91.2839 122.03 90.4401 121.321C89.6068 120.603 88.2995 120.243 86.5182 120.243C85.8932 120.243 85.2266 120.301 84.5182 120.415C83.8203 120.519 83.237 120.634 82.7682 120.759L81.1589 119.806L82.0182 108.634H93.8932V111.868H85.2526L84.7526 117.556C85.1276 117.472 85.5755 117.394 86.0964 117.321C86.6172 117.238 87.263 117.196 88.0339 117.196ZM108.089 122.665C109.115 122.665 109.938 123.04 110.557 123.79C111.182 124.54 111.495 125.655 111.495 127.134C111.495 128.113 111.349 128.939 111.057 129.61C110.771 130.277 110.367 130.782 109.846 131.126C109.331 131.465 108.729 131.634 108.042 131.634C107.604 131.634 107.224 131.577 106.901 131.462C106.578 131.347 106.302 131.199 106.073 131.017C105.844 130.829 105.651 130.626 105.495 130.407H105.385C105.411 130.616 105.435 130.847 105.456 131.103C105.482 131.353 105.495 131.582 105.495 131.79V135.314H103.651V122.829H105.151L105.409 124.025H105.495C105.656 123.78 105.852 123.553 106.081 123.345C106.315 123.137 106.596 122.972 106.924 122.853C107.258 122.728 107.646 122.665 108.089 122.665ZM107.596 124.165C107.091 124.165 106.685 124.267 106.378 124.47C106.076 124.668 105.854 124.967 105.714 125.368C105.578 125.769 105.505 126.272 105.495 126.876V127.134C105.495 127.775 105.56 128.319 105.69 128.767C105.826 129.209 106.047 129.548 106.354 129.782C106.667 130.012 107.089 130.126 107.62 130.126C108.068 130.126 108.438 130.004 108.729 129.759C109.026 129.514 109.247 129.165 109.393 128.712C109.539 128.259 109.612 127.725 109.612 127.11C109.612 126.178 109.445 125.454 109.112 124.939C108.784 124.423 108.279 124.165 107.596 124.165ZM116.839 130.15C117.078 130.15 117.315 130.129 117.549 130.087C117.784 130.04 117.997 129.985 118.19 129.923V131.314C117.987 131.402 117.724 131.478 117.401 131.54C117.078 131.603 116.742 131.634 116.393 131.634C115.904 131.634 115.464 131.553 115.073 131.392C114.682 131.225 114.372 130.941 114.143 130.54C113.914 130.139 113.799 129.584 113.799 128.876V124.228H112.62V123.407L113.885 122.759L114.487 120.907H115.643V122.829H118.12V124.228H115.643V128.853C115.643 129.29 115.753 129.616 115.971 129.829C116.19 130.043 116.479 130.15 116.839 130.15ZM125.76 129.009C125.76 129.577 125.622 130.056 125.346 130.446C125.07 130.837 124.667 131.134 124.135 131.337C123.609 131.535 122.964 131.634 122.198 131.634C121.594 131.634 121.073 131.59 120.635 131.501C120.203 131.418 119.794 131.288 119.409 131.11V129.525C119.82 129.717 120.281 129.884 120.792 130.025C121.307 130.165 121.794 130.235 122.253 130.235C122.857 130.235 123.292 130.142 123.557 129.954C123.823 129.762 123.956 129.506 123.956 129.189C123.956 129.001 123.901 128.834 123.792 128.689C123.688 128.538 123.49 128.384 123.198 128.228C122.911 128.066 122.49 127.873 121.932 127.65C121.385 127.431 120.924 127.212 120.549 126.993C120.174 126.775 119.891 126.512 119.698 126.204C119.505 125.892 119.409 125.493 119.409 125.009C119.409 124.243 119.711 123.663 120.315 123.267C120.924 122.866 121.729 122.665 122.729 122.665C123.26 122.665 123.76 122.72 124.229 122.829C124.703 122.933 125.167 123.087 125.62 123.29L125.042 124.673C124.651 124.501 124.258 124.36 123.862 124.251C123.471 124.137 123.073 124.079 122.667 124.079C122.193 124.079 121.831 124.152 121.581 124.298C121.336 124.444 121.214 124.652 121.214 124.923C121.214 125.126 121.273 125.298 121.393 125.439C121.513 125.579 121.719 125.72 122.01 125.86C122.307 126.001 122.719 126.176 123.245 126.384C123.76 126.582 124.206 126.79 124.581 127.009C124.961 127.222 125.253 127.485 125.456 127.798C125.659 128.11 125.76 128.514 125.76 129.009Z" fill="white"/>
<g clip-path="url(#clip2_33_6019)">
<g clip-path="url(#clip3_33_6019)">
<path fill-rule="evenodd" clip-rule="evenodd" d="M293.008 64.4976H347.199V10.2136H293.008V64.4976Z" fill="#231F20"/>
<path fill-rule="evenodd" clip-rule="evenodd" d="M309.996 24.1766C311.421 22.1947 313.003 20.2881 314.745 18.4785C316.493 16.6636 318.34 15.0037 320.273 13.5024L318.206 21.8157L309.996 24.1766Z" fill="#CFD1D2"/>
<path fill-rule="evenodd" clip-rule="evenodd" d="M324.349 27.7664C321.925 27.5197 319.488 27.099 317.056 26.4907C314.614 25.8803 312.258 25.1044 309.995 24.1762L318.206 21.8152L324.349 27.7664Z" fill="#59595B"/>
<path fill-rule="evenodd" clip-rule="evenodd" d="M320.272 13.5035C321.271 15.7321 322.126 18.0599 322.817 20.4773C323.511 22.9031 324.019 25.3384 324.349 27.7679L318.206 21.8156L320.272 13.5035Z" fill="#919396"/>
<path fill-rule="evenodd" clip-rule="evenodd" d="M307.096 41.2631C305.656 39.2916 304.338 37.1932 303.161 34.9724C301.98 32.7443 300.977 30.4682 300.151 28.1609L307.394 32.7016L307.096 41.2631Z" fill="#919396"/>
<path fill-rule="evenodd" clip-rule="evenodd" d="M314.935 28.6801C313.952 30.9162 312.8 33.1111 311.471 35.2438C310.138 37.3839 308.674 39.3928 307.095 41.2641L307.394 32.7015L314.935 28.6801Z" fill="#59595B"/>
<path fill-rule="evenodd" clip-rule="evenodd" d="M300.152 28.162C302.573 27.8979 305.044 27.8014 307.55 27.8889C310.064 27.977 312.531 28.2442 314.936 28.6801L307.394 32.7015L300.152 28.162Z" fill="#CFD1D2"/>
<path fill-rule="evenodd" clip-rule="evenodd" d="M322.4 49.3099C320.086 50.0737 317.689 50.683 315.219 51.1206C312.742 51.5581 310.274 51.8111 307.831 51.8865L314.375 46.3796L322.4 49.3099Z" fill="#59595B"/>
<path fill-rule="evenodd" clip-rule="evenodd" d="M312.892 37.9432C314.708 39.5715 316.433 41.3495 318.046 43.2761C319.662 45.2091 321.115 47.2258 322.401 49.3106L314.375 46.3798L312.892 37.9432Z" fill="#919396"/>
<path fill-rule="evenodd" clip-rule="evenodd" d="M307.832 51.8857C308.33 49.4941 309.002 47.1068 309.86 44.7432C310.72 42.3722 311.736 40.1019 312.892 37.9418L314.375 46.3799L307.832 51.8857Z" fill="#CFD1D2"/>
<path fill-rule="evenodd" clip-rule="evenodd" d="M334.759 37.1971C334.768 39.6403 334.605 42.1162 334.256 44.6064C333.906 47.1054 333.383 49.5376 332.701 51.8912L329.501 43.9475L334.759 37.1971Z" fill="#919396"/>
<path fill-rule="evenodd" clip-rule="evenodd" d="M321.044 42.7546C323.149 41.5254 325.368 40.429 327.692 39.487C330.025 38.5419 332.387 37.7797 334.761 37.1967L329.501 43.9475L321.044 42.7546Z" fill="#CFD1D2"/>
<path fill-rule="evenodd" clip-rule="evenodd" d="M332.699 51.8904C330.586 50.6753 328.53 49.2969 326.555 47.7488C324.571 46.1948 322.733 44.5244 321.042 42.7538L329.501 43.9472L332.699 51.8904Z" fill="#59595B"/>
<path fill-rule="evenodd" clip-rule="evenodd" d="M327.094 21.6638C329.413 22.4107 331.71 23.3311 333.964 24.4328C336.225 25.5397 338.369 26.7901 340.389 28.169L331.868 28.7662L327.094 21.6638Z" fill="#919396"/>
<path fill-rule="evenodd" clip-rule="evenodd" d="M328.125 36.4651C327.609 34.0773 327.256 31.622 327.081 29.1134C326.905 26.5953 326.912 24.1073 327.094 21.6625L331.869 28.766L328.125 36.4651Z" fill="#CFD1D2"/>
<path fill-rule="evenodd" clip-rule="evenodd" d="M340.388 28.1689C338.584 29.8103 336.641 31.3453 334.562 32.7517C332.476 34.1633 330.325 35.4005 328.124 36.4658L331.869 28.7661L340.388 28.1689Z" fill="#59595B"/>
<path fill-rule="evenodd" clip-rule="evenodd" d="M311.303 57.4406C311.293 57.8254 311.102 57.9836 310.574 57.9962H309.37V56.9541H310.621C311.119 56.9662 311.295 57.1064 311.303 57.4406ZM311.815 59.6609C311.776 59.5929 311.751 59.3926 311.748 58.8718C311.745 58.5655 311.574 58.3399 311.331 58.2097C311.643 58.0199 311.801 57.7184 311.801 57.4517C311.802 57.1365 311.702 56.8829 311.495 56.7185C311.288 56.554 310.991 56.4808 310.606 56.4802H308.955H308.877V59.8802H309.291H309.37V58.4701H310.6C310.885 58.4685 311.046 58.5028 311.124 58.5724C311.203 58.6377 311.242 58.7663 311.249 59.0136C311.266 59.5423 311.273 59.7173 311.377 59.8369L311.399 59.8585L311.422 59.8802H311.801H311.931L311.815 59.6609Z" fill="#FEFEFE"/>
<path fill-rule="evenodd" clip-rule="evenodd" d="M306.934 58.4094H305.828C305.945 58.1521 306.233 57.5175 306.379 57.1959C306.526 57.517 306.815 58.1516 306.934 58.4094ZM306.585 56.4801H306.227H306.177L306.156 56.526L304.618 59.88H305.106H305.156L305.616 58.879H307.143L307.578 59.8342L307.599 59.88H308.021H308.144L306.585 56.4801Z" fill="#FEFEFE"/>
<path fill-rule="evenodd" clip-rule="evenodd" d="M301.668 56.48V56.8759V56.9539H301.745H302.919V59.8799H303.33H303.409V56.9539H304.582H304.66V56.5585V56.48H301.668Z" fill="#FEFEFE"/>
<path fill-rule="evenodd" clip-rule="evenodd" d="M337.578 58.4047H337.513L337.491 58.527C337.385 59.1153 336.935 59.4716 336.284 59.4753C335.321 59.4711 334.961 58.8175 334.954 58.1833C334.958 57.4137 335.496 56.8908 336.296 56.8866C336.91 56.8898 337.322 57.1702 337.445 57.6425L337.459 57.6957L337.474 57.7553H337.884H337.983L337.94 57.5729C337.776 56.8355 337.156 56.4075 336.296 56.4117C335.063 56.4133 334.454 57.3341 334.451 58.1865C334.451 58.7157 334.637 59.1606 334.962 59.469C335.286 59.7779 335.746 59.9497 336.284 59.9492C337.293 59.9497 337.915 59.2608 337.996 58.5723L338.007 58.4938L338.019 58.4047H337.578Z" fill="#FEFEFE"/>
<path fill-rule="evenodd" clip-rule="evenodd" d="M333.083 56.48H333.005V56.5585V57.7851V59.0529C332.491 58.4509 330.802 56.5074 330.802 56.5074L330.778 56.48H330.407H330.329V59.8799H330.738H330.816V59.8019V57.3091C331.331 57.9111 333.02 59.853 333.02 59.853L333.043 59.8799H333.414H333.493V56.48H333.083Z" fill="#FEFEFE"/>
<path fill-rule="evenodd" clip-rule="evenodd" d="M316.267 58.4094H315.161C315.28 58.1516 315.569 57.517 315.716 57.1959C315.861 57.5175 316.149 58.1521 316.267 58.4094ZM315.923 56.4801H315.56H315.51L315.489 56.526L313.951 59.88H314.444H314.494L314.949 58.879H316.477L316.916 59.8347L316.937 59.88H317.354H317.476L315.923 56.4801Z" fill="#FEFEFE"/>
<path fill-rule="evenodd" clip-rule="evenodd" d="M339.383 59.4064V58.3601H341.464H341.542V57.9685V57.8904H339.383V56.9543H341.631V56.5589V56.4799H338.893V59.8798H341.658V59.4844V59.4064H339.383Z" fill="#FEFEFE"/>
<path fill-rule="evenodd" clip-rule="evenodd" d="M328.339 58.4094H327.235C327.353 58.1516 327.643 57.518 327.789 57.1959C327.935 57.5175 328.223 58.1521 328.339 58.4094ZM327.996 56.4801H327.633H327.584L327.562 56.526L326.024 59.88H326.517H326.567L327.022 58.879H328.551L328.988 59.8342L329.009 59.88H329.427H329.549L327.996 56.4801Z" fill="#FEFEFE"/>
<path fill-rule="evenodd" clip-rule="evenodd" d="M318.901 59.4064V56.4799H318.823H318.486H318.408V59.8798H320.894V59.4844V59.4064H318.901Z" fill="#FEFEFE"/>
<path fill-rule="evenodd" clip-rule="evenodd" d="M322.035 59.4064V56.4799H321.956H321.619H321.541V59.8798H324.024V59.4844V59.4064H322.035Z" fill="#FEFEFE"/>
<path fill-rule="evenodd" clip-rule="evenodd" d="M324.71 56.48H324.632V59.8799H324.71H325.043H325.121V56.48H324.71Z" fill="#FEFEFE"/>
<path fill-rule="evenodd" clip-rule="evenodd" d="M300.841 58.1C300.561 57.9661 300.218 57.9345 299.905 57.9013H299.903C299.583 57.8697 299.308 57.8338 299.129 57.7605C298.95 57.6815 298.878 57.6045 298.873 57.4253C298.877 57.2445 298.95 57.1348 299.157 57.0336C299.372 56.9345 299.612 56.9171 299.873 56.9177C300.068 56.915 300.424 56.9562 300.593 57.1312C300.666 57.2034 300.712 57.3373 300.711 57.4701V57.5692L301.136 57.5734L301.237 57.5745V57.4733C301.236 57.2155 301.158 56.953 300.983 56.7759C300.673 56.4686 300.193 56.4185 299.847 56.4164C299.372 56.4174 298.892 56.515 298.58 56.8249C298.416 56.9888 298.33 57.1965 298.331 57.4253C298.326 57.8438 298.561 58.1005 298.854 58.2228C299.146 58.3504 299.5 58.3773 299.804 58.4057C300.092 58.431 300.356 58.4579 300.533 58.537C300.717 58.6229 300.78 58.721 300.786 58.9307C300.785 59.0604 300.746 59.1569 300.666 59.2381C300.48 59.4341 300.002 59.4747 299.834 59.471C299.409 59.4726 299.078 59.3735 298.926 59.2175C298.809 59.0994 298.753 58.9671 298.75 58.7484L298.749 58.6487H298.33H298.233L298.229 58.7457L298.229 58.751C298.228 59.0894 298.333 59.3598 298.539 59.5643C298.819 59.8458 299.286 59.9708 299.855 59.9718C300.018 59.9713 300.371 59.9555 300.698 59.8189C301.023 59.6872 301.333 59.4052 301.33 58.917C301.335 58.4953 301.122 58.2307 300.841 58.1Z" fill="#FEFEFE"/>
</g>
</g>
</g>
<defs>
<filter id="filter0_d_33_6019" x="0.985657" y="0.213623" width="388.397" height="228.758" filterUnits="userSpaceOnUse" color-interpolation-filters="sRGB">
<feFlood flood-opacity="0" result="BackgroundImageFix"/>
<feColorMatrix in="SourceAlpha" type="matrix" values="0 0 0 0 0 0 0 0 0 0 0 0 0 0 0 0 0 0 127 0" result="hardAlpha"/>
<feOffset/>
<feGaussianBlur stdDeviation="5"/>
<feComposite in2="hardAlpha" operator="out"/>
<feColorMatrix type="matrix" values="0 0 0 0 0 0 0 0 0 0 0 0 0 0 0 0 0 0 0.1 0"/>
<feBlend mode="normal" in2="BackgroundImageFix" result="effect1_dropShadow_33_6019"/>
<feBlend mode="normal" in="SourceGraphic" in2="effect1_dropShadow_33_6019" result="shape"/>
</filter>
<linearGradient id="paint0_linear_33_6019" x1="10.9857" y1="218.972" x2="190.072" y2="-97.0624" gradientUnits="userSpaceOnUse">
<stop stop-color="#5A0A0D"/>
<stop offset="1" stop-color="#A91F24"/>
</linearGradient>
<clipPath id="clip0_33_6019">
<rect width="129.954" height="18.2663" fill="white" transform="translate(42.2057 36.3084)"/>
</clipPath>
<clipPath id="clip1_33_6019">
<rect width="129.954" height="18.2647" fill="white" transform="translate(42.2057 36.3092)"/>
</clipPath>
<clipPath id="clip2_33_6019">
<rect width="55.1555" height="54.2934" fill="white" transform="translate(293.007 10.2136)"/>
</clipPath>
<clipPath id="clip3_33_6019">
<rect width="55.1524" height="54.2934" fill="white" transform="translate(293.008 10.2136)"/>
</clipPath>
</defs>
</svg>
