<svg width="16" height="17" viewBox="0 0 16 17" fill="none" xmlns="http://www.w3.org/2000/svg">
<path d="M15.7372 15.1184L12.7159 12.106C13.6907 10.8642 14.2196 9.33063 14.2176 7.75189C14.2176 6.3459 13.8007 4.97148 13.0196 3.80244C12.2385 2.6334 11.1282 1.72225 9.82925 1.1842C8.53028 0.646147 7.10094 0.505368 5.72196 0.779664C4.34299 1.05396 3.07631 1.73101 2.08213 2.72519C1.08794 3.71938 0.410893 4.98605 0.136597 6.36503C-0.137698 7.744 0.00308013 9.17335 0.54113 10.4723C1.07918 11.7713 1.99033 12.8815 3.15937 13.6627C4.32841 14.4438 5.70283 14.8607 7.10882 14.8607C8.68756 14.8627 10.2211 14.3338 11.463 13.359L14.4753 16.3802C14.5579 16.4635 14.6562 16.5296 14.7645 16.5747C14.8728 16.6198 14.9889 16.6431 15.1062 16.6431C15.2236 16.6431 15.3397 16.6198 15.448 16.5747C15.5563 16.5296 15.6545 16.4635 15.7372 16.3802C15.8204 16.2976 15.8865 16.1993 15.9317 16.091C15.9768 15.9828 16 15.8666 16 15.7493C16 15.632 15.9768 15.5159 15.9317 15.4076C15.8865 15.2993 15.8204 15.201 15.7372 15.1184ZM1.77721 7.75189C1.77721 6.6974 2.0899 5.66658 2.67575 4.7898C3.26159 3.91302 4.09428 3.22966 5.0685 2.82612C6.04273 2.42258 7.11474 2.317 8.14897 2.52272C9.1832 2.72844 10.1332 3.23623 10.8788 3.98187C11.6245 4.72751 12.1323 5.67751 12.338 6.71174C12.5437 7.74597 12.4381 8.81798 12.0346 9.79221C11.6311 10.7664 10.9477 11.5991 10.0709 12.185C9.19413 12.7708 8.16332 13.0835 7.10882 13.0835C5.69479 13.0835 4.33867 12.5218 3.3388 11.5219C2.33893 10.522 1.77721 9.16592 1.77721 7.75189Z" fill="#2E2E2E"/>
</svg>
