<svg width="48" height="49" viewBox="0 0 48 49" fill="none" xmlns="http://www.w3.org/2000/svg">
<rect width="48" height="48" transform="translate(0 0.643066)" fill="black"/>
<path d="M31.7372 31.1184L28.7159 28.106C29.6907 26.8642 30.2196 25.3306 30.2176 23.7519C30.2176 22.3459 29.8007 20.9715 29.0196 19.8024C28.2385 18.6334 27.1282 17.7222 25.8293 17.1842C24.5303 16.6461 23.1009 16.5054 21.722 16.7797C20.343 17.054 19.0763 17.731 18.0821 18.7252C17.0879 19.7194 16.4109 20.9861 16.1366 22.365C15.8623 23.744 16.0031 25.1733 16.5411 26.4723C17.0792 27.7713 17.9903 28.8815 19.1594 29.6627C20.3284 30.4438 21.7028 30.8607 23.1088 30.8607C24.6876 30.8627 26.2211 30.3338 27.463 29.359L30.4753 32.3802C30.5579 32.4635 30.6562 32.5296 30.7645 32.5747C30.8728 32.6198 30.9889 32.6431 31.1062 32.6431C31.2236 32.6431 31.3397 32.6198 31.448 32.5747C31.5563 32.5296 31.6545 32.4635 31.7372 32.3802C31.8204 32.2976 31.8865 32.1993 31.9317 32.091C31.9768 31.9828 32 31.8666 32 31.7493C32 31.632 31.9768 31.5159 31.9317 31.4076C31.8865 31.2993 31.8204 31.201 31.7372 31.1184ZM17.7772 23.7519C17.7772 22.6974 18.0899 21.6666 18.6757 20.7898C19.2616 19.913 20.0943 19.2297 21.0685 18.8261C22.0427 18.4226 23.1147 18.317 24.149 18.5227C25.1832 18.7284 26.1332 19.2362 26.8788 19.9819C27.6245 20.7275 28.1323 21.6775 28.338 22.7117C28.5437 23.746 28.4381 24.818 28.0346 25.7922C27.6311 26.7664 26.9477 27.5991 26.0709 28.185C25.1941 28.7708 24.1633 29.0835 23.1088 29.0835C21.6948 29.0835 20.3387 28.5218 19.3388 27.5219C18.3389 26.522 17.7772 25.1659 17.7772 23.7519Z" fill="white"/>
</svg>
