<svg width="200" height="26" viewBox="0 0 200 26" fill="none" xmlns="http://www.w3.org/2000/svg">
<g clip-path="url(#clip0_33_9864)">
<g clip-path="url(#clip1_33_9864)">
<path d="M17.482 17.7511C17.482 16.927 17.8407 16.8092 18.6779 17.2801C20.113 18.1043 21.5481 18.8107 21.5481 18.8107C21.5481 18.3397 22.0264 17.9865 22.8636 18.222C23.7007 18.4575 24.5379 18.5752 24.5379 18.5752C24.5379 18.5752 24.0595 17.5156 23.8203 17.0447C23.4615 16.2206 23.8203 15.7496 24.1791 15.6319C24.1791 15.6319 23.7007 15.2787 23.3419 15.0432C22.6244 14.5723 22.744 13.9836 23.4615 13.7482C24.4183 13.2772 25.7338 12.8063 25.7338 12.8063C25.375 12.5708 24.8966 11.9822 25.375 11.1581C25.8534 10.4517 26.6905 9.39207 26.6905 9.39207C26.6905 9.39207 25.375 9.39207 24.4183 9.39207C23.5811 9.39207 23.3419 8.68567 23.3419 8.21474C23.3419 8.21474 22.0264 9.1566 21.0697 9.74527C20.2326 10.3339 19.515 9.74527 19.6346 8.8034C19.8738 7.39061 19.9934 5.74236 19.9934 5.74236C19.515 6.21329 18.6779 6.09556 18.1995 5.38916C17.6016 4.21183 17.0036 2.79904 17.0036 2.79904C17.0036 2.79904 16.4056 4.21183 15.8077 5.38916C15.4489 6.09556 14.6118 6.21329 14.1334 5.86009C14.1334 5.86009 14.253 7.50835 14.4922 8.92114C14.6118 9.74527 13.8942 10.3339 13.0571 9.74527C12.1004 9.1566 10.6653 8.21474 10.6653 8.21474C10.6653 8.68567 10.4261 9.27433 9.58894 9.39207C8.63221 9.39207 7.3167 9.39207 7.3167 9.39207C7.3167 9.39207 8.15384 10.4517 8.63221 11.1581C9.11057 11.8645 8.63221 12.5708 8.27343 12.8063C8.27343 12.8063 9.46935 13.395 10.5457 13.7482C11.2632 14.1014 11.5024 14.5723 10.6653 15.0432C10.4261 15.2787 9.82812 15.6319 9.82812 15.6319C10.3065 15.7496 10.6653 16.2206 10.3065 17.0447C10.0673 17.5156 9.58894 18.5752 9.58894 18.5752C9.58894 18.5752 10.4261 18.3397 11.2632 18.222C12.1004 17.9865 12.4591 18.4575 12.5787 18.8107C12.5787 18.8107 14.0138 17.9865 15.4489 17.2801C16.1665 16.8092 16.6448 17.0447 16.6448 17.7511V19.7525C16.6448 20.9299 16.4056 22.1072 16.0469 22.8136C10.6653 22.2249 6.12079 17.9865 6.12079 12.3354C6.12079 6.56649 11.024 1.85718 17.1232 1.85718C23.2224 1.85718 28.1256 6.56649 28.1256 12.3354C28.1256 17.7511 23.8203 22.2249 18.3191 22.8136V24.2264C24.777 23.6377 29.7999 18.5752 29.7999 12.3354C29.7999 5.62463 24.0595 0.32666 17.0036 0.32666C10.0673 0.32666 4.32692 5.62463 4.32692 12.2176C4.32692 17.9865 8.7518 22.8136 14.6118 23.8732C15.5685 24.1086 16.1665 24.2264 16.7644 24.815C17.3624 23.6377 17.482 21.2831 17.482 19.988V17.7511Z" fill="#F01428"/>
<path d="M98.6845 5.50684C100.359 5.50684 102.033 5.62457 103.827 5.97777V8.09695C101.913 7.50829 100.12 7.27282 98.8041 7.27282C97.1298 7.27282 95.9339 7.74375 94.9772 8.56788C94.14 9.39201 93.6617 10.6871 93.6617 12.2176C93.6617 13.7481 94.14 14.9254 95.0968 15.8673C96.0535 16.6914 97.369 17.1624 99.0433 17.1624C100.598 17.1624 102.272 16.8092 103.827 16.2205V18.1042C102.392 18.6929 100.598 18.9283 98.4453 18.9283C95.9339 18.9283 93.9008 18.3397 92.4657 17.1624C91.0307 15.985 90.3131 14.3368 90.3131 12.2176C90.3131 10.0984 91.0307 8.33242 92.4657 7.27282C93.9008 6.0955 95.9339 5.50684 98.6845 5.50684ZM75.125 5.86003C78.4736 5.86003 80.0282 7.27282 80.1478 9.03881C80.1478 9.86294 80.0282 10.6871 79.4303 11.2757C78.8323 11.8644 78.5932 12.0999 77.5168 12.6885L82.3005 18.6929H78.8323L74.527 13.2772H71.6569V18.5752H68.7867V5.86003H75.125ZM189.574 5.86003L195.195 18.5752H191.727L190.172 15.1609H184.192L182.638 18.5752H180.485L186.106 5.86003H189.574ZM154.055 5.86003L159.676 18.5752H156.208L154.653 15.1609H148.674L147.119 18.5752H144.966L150.587 5.86003H154.055ZM130.017 5.86003L138.15 14.9254V5.86003H140.661V18.5752H137.432L129.061 9.03881V18.5752H126.549V5.86003H130.017ZM116.623 5.86003L122.244 18.5752H118.776L117.221 15.1609H111.242L109.687 18.5752H107.534L113.155 5.86003H116.623ZM62.0895 5.86003V18.5752H59.0998V5.86003H62.0895ZM49.5325 5.86003L55.1532 18.5752H51.6851L50.1304 15.1609H44.1508L42.5962 18.5752H40.4435L46.0643 5.86003H49.5325ZM170.081 5.86003C172.353 5.86003 174.027 6.4487 175.223 7.39056C176.419 8.45015 177.017 9.98067 177.017 11.8644C177.017 13.9836 176.419 15.6318 175.103 16.6914C173.788 17.8688 172.114 18.4574 169.841 18.4574H163.862V5.86003H170.081ZM168.765 7.50829H166.971V16.8092H169.124C170.678 16.8092 171.874 16.456 172.712 15.6318C173.549 14.8077 173.907 13.7481 173.907 12.0999C173.907 10.9225 173.549 9.86294 172.951 9.03881C172.472 8.45015 171.994 8.09695 171.396 7.86149C170.798 7.62602 169.961 7.50829 168.765 7.50829ZM187.062 8.45015L184.91 13.5127H189.335L187.062 8.45015ZM151.544 8.45015L149.391 13.5127H153.816L151.544 8.45015ZM114.351 8.45015L112.079 13.5127H116.504L114.351 8.45015ZM47.021 8.45015L44.8684 13.5127H49.2933L47.021 8.45015ZM73.3311 7.50829H71.6569V11.6289H72.9724C76.4405 11.6289 77.1581 11.0403 77.1581 9.39201C77.1581 7.74375 75.6034 7.50829 73.3311 7.50829Z" fill="white"/>
</g>
</g>
<defs>
<clipPath id="clip0_33_9864">
<rect width="200" height="25" fill="white" transform="translate(0 0.32666)"/>
</clipPath>
<clipPath id="clip1_33_9864">
<rect width="191.346" height="25" fill="white" transform="translate(4.32692 0.32666)"/>
</clipPath>
</defs>
</svg>
