<svg width="83" height="84" viewBox="0 0 83 84" fill="none" xmlns="http://www.w3.org/2000/svg">
<mask id="mask0_33_11731" style="mask-type:luminance" maskUnits="userSpaceOnUse" x="10" y="11" width="62" height="62">
<path d="M10.9169 41.7883C10.9169 58.5602 24.5502 72.1935 41.3221 72.1935C58.094 72.1935 71.7273 58.5602 71.7273 41.7883C71.7273 25.0164 58.094 11.3831 41.3221 11.3831C24.5502 11.3831 10.9169 25.0164 10.9169 41.7883Z" fill="white"/>
</mask>
<g mask="url(#mask0_33_11731)">
<mask id="mask1_33_11731" style="mask-type:luminance" maskUnits="userSpaceOnUse" x="-20" y="-19" width="122" height="122">
<path d="M44.7101 -18.5937L-19.3374 38.5308L37.7544 102.542L101.802 45.4172L44.7101 -18.5937Z" fill="white"/>
</mask>
<g mask="url(#mask1_33_11731)">
<path d="M-19.3412 38.5025L44.7059 -18.6299L101.838 45.4173L37.7421 102.501L-19.3412 38.5025Z" fill="url(#paint0_linear_33_11731)"/>
</g>
</g>
<mask id="mask2_33_11731" style="mask-type:luminance" maskUnits="userSpaceOnUse" x="0" y="0" width="83" height="84">
<path d="M82.7615 0.545166H0.0789185V83.2278H82.7615V0.545166Z" fill="white"/>
</mask>
<g mask="url(#mask2_33_11731)">
<path d="M32.5439 13.7861C33.3285 13.5409 34.1622 13.3938 34.9959 13.3447C35.3392 13.3938 35.6334 13.5899 35.8296 13.8351C36.2219 14.4727 36.5162 15.1592 36.6143 15.8948C36.7614 16.5814 36.9085 17.3661 36.5652 17.9546C36.1239 18.445 35.5354 18.7392 34.8978 18.8373L33.868 19.0825C33.868 19.0334 33.8189 18.9844 33.8189 18.9844C33.4266 17.2189 32.5439 13.7861 32.5439 13.7861ZM33.5247 14.2275C33.8189 15.5025 34.1622 16.8266 34.4565 18.1017L34.5055 18.2488C34.8488 18.1507 35.143 18.1017 35.4373 18.0036C35.7806 17.8074 35.9277 17.4151 35.8786 17.0228C35.8296 16.3852 35.6825 15.7477 35.4863 15.1592C35.3882 14.7669 35.1921 14.4236 34.8978 14.1784C34.5055 13.8842 33.9661 14.1784 33.5247 14.2275Z" fill="white"/>
<path d="M32.642 13.9333C33.4266 13.6881 34.2603 13.541 35.094 13.4919C35.4373 13.541 35.7315 13.7371 35.9277 13.9824C36.32 14.6199 36.6143 15.3064 36.7123 16.0421C36.8595 16.7286 37.0066 17.5133 36.6143 18.1018C36.1729 18.5922 35.5844 18.8864 34.9469 18.9355L33.868 19.1807C33.868 19.1316 33.868 19.0826 33.8189 19.0826C33.5247 17.3662 32.642 13.9333 32.642 13.9333ZM33.6228 14.3747C33.917 15.6497 34.2603 16.9738 34.6036 18.2489V18.396C34.9469 18.2979 35.2411 18.2489 35.5354 18.1508C35.8787 17.9546 36.0258 17.5623 35.9767 17.17C35.9277 16.5325 35.7806 15.8949 35.5844 15.3064C35.4863 14.9141 35.2902 14.5708 34.9959 14.3256C34.6036 14.0314 34.1132 14.3256 33.6228 14.3747Z" fill="#010101"/>
<path d="M27.3946 16.0911C27.6398 15.993 27.885 15.8459 28.1792 15.6987C28.8168 17.0228 29.4543 18.3469 30.0918 19.671L30.239 19.9653L32.1025 19.0335C32.2006 19.2787 32.3967 19.7201 32.3967 19.7201C32.3967 19.7201 30.6803 20.6028 29.7976 20.9951C29.0129 19.3768 28.1792 17.7584 27.3946 16.0911Z" fill="white"/>
<path d="M27.4437 16.189C27.6889 16.0909 27.9341 15.9438 28.2283 15.7966C28.8658 17.1207 29.5034 18.4448 30.1409 19.7689L30.288 20.0632L32.1516 19.1804C32.2497 19.4256 32.4458 19.867 32.4458 19.867C32.4458 19.867 30.6804 20.7007 29.7976 21.1421C29.013 19.4747 28.2283 17.8563 27.4437 16.189Z" fill="#010101"/>
<path d="M23.9617 18.2977C24.2069 18.1016 24.5502 18.0035 24.8935 18.0525C25.1877 18.1506 25.482 18.2977 25.7272 18.5429C26.1195 18.9353 26.2176 19.4747 26.0705 20.0142C26.0214 20.1122 25.9724 20.1613 25.9234 20.2594C26.1686 20.1122 26.4628 20.1122 26.708 20.2103C26.9532 20.3575 27.1494 20.5536 27.3455 20.7988C27.4927 20.995 27.6888 21.2402 27.885 21.4363C27.9831 21.5835 28.1302 21.6815 28.3264 21.7306H28.4244C28.1792 21.9758 27.885 22.172 27.5907 22.3681C27.3455 22.0739 27.0513 21.7796 26.8061 21.4854C26.5609 21.1911 26.3647 20.8969 26.0214 20.7988C25.5801 20.8479 25.1877 21.2402 24.8445 21.4854C25.3349 22.1229 25.7762 22.7604 26.2666 23.3489C26.0705 23.5451 25.8253 23.6432 25.6291 23.8393C25.0897 23.2018 24.5993 22.4662 24.1088 21.8287C23.5204 21.044 22.9319 20.3084 22.3434 19.5238C22.8828 19.0824 23.4223 18.6901 23.9617 18.2977ZM23.8636 19.1314C23.6675 19.2295 23.4713 19.4257 23.3732 19.5238C23.3732 19.5238 24.1088 20.5046 24.5012 20.9459C24.7954 20.7498 25.0897 20.5046 25.3349 20.2103C25.482 20.0142 25.482 19.7199 25.3839 19.4747C25.2368 19.2295 25.0406 19.0334 24.7954 18.8862C24.4521 18.8372 24.1088 18.9353 23.8636 19.1314Z" fill="white"/>
<path d="M24.0598 18.445C24.305 18.2488 24.6483 18.1507 24.9916 18.1998C25.3349 18.2978 25.5801 18.445 25.8253 18.6902C26.2176 19.0825 26.3157 19.6219 26.1686 20.1614C26.1195 20.2595 26.0705 20.3085 25.9724 20.4066C26.2176 20.2595 26.5118 20.2595 26.757 20.3575C27.0023 20.5047 27.1984 20.7008 27.3946 20.946C27.5417 21.1422 27.7379 21.3874 27.934 21.5836C28.0321 21.7307 28.1792 21.8288 28.3754 21.8778H28.4735C28.2283 22.123 27.934 22.3192 27.6398 22.5153C27.3946 22.2211 27.1003 21.9268 26.8551 21.6326C26.6099 21.3384 26.4138 21.0441 26.0705 20.946C25.6291 20.9951 25.2858 21.3384 24.9425 21.5836C25.4329 22.2211 25.8743 22.8586 26.3647 23.4471C26.1686 23.6433 25.9234 23.7904 25.6782 23.9866C25.0897 23.349 24.6483 22.6134 24.1088 21.9268C23.5204 21.1422 22.9319 20.4066 22.3434 19.6219C22.9809 19.2296 23.5204 18.8373 24.0598 18.445ZM23.9617 19.2786C23.7656 19.3767 23.6184 19.5239 23.5204 19.6219C23.5204 19.6219 24.2069 20.6027 24.5993 21.0441C24.8935 20.8479 25.1387 20.6027 25.3839 20.3575C25.531 20.1614 25.531 19.8671 25.4329 19.6219C25.2858 19.3767 25.0897 19.1806 24.8445 19.0334C24.5502 18.9844 24.2069 19.0825 23.9617 19.2786Z" fill="#010101"/>
<path d="M18.6163 23.2508C18.9106 22.6133 19.5972 22.27 20.2837 22.3681C21.2645 22.6624 22.0982 23.2508 22.7848 23.9865C23.2262 24.3788 23.5204 24.9182 23.6185 25.5067C23.5694 26.0952 23.2752 26.6347 22.7358 26.9779C22.3925 27.1741 21.9511 27.2722 21.5588 27.1251C21.0193 26.9289 20.4799 26.6347 20.0385 26.2423C19.401 25.801 18.8615 25.1634 18.5183 24.4278C18.3221 24.0845 18.3711 23.5941 18.6163 23.2508ZM19.2048 23.5941C19.0577 23.8884 19.1067 24.2317 19.3519 24.4769C19.3519 24.4769 19.5481 24.7221 19.5972 24.7711C20.1856 25.4086 20.8722 25.9481 21.6569 26.3404C21.9511 26.4875 22.3434 26.4385 22.5886 26.1933C22.8338 25.9481 22.8829 25.5558 22.6867 25.2615C22.4415 24.9182 22.1963 24.624 21.9021 24.3788C21.3626 23.8393 20.5289 23.2018 20.0385 23.1037C19.6952 23.0547 19.3519 23.2508 19.2048 23.5941Z" fill="white"/>
<path d="M18.7144 23.3981C19.0086 22.7605 19.6952 22.4173 20.3818 22.5153C21.3626 22.8096 22.1963 23.3981 22.8828 24.1337C23.3242 24.526 23.6184 25.0655 23.6675 25.6539C23.6184 26.2424 23.3242 26.7819 22.7848 27.1252C22.4415 27.3213 22.0001 27.4194 21.6078 27.2723C21.0683 27.0761 20.5289 26.7819 20.0875 26.4386C19.45 25.9972 18.9105 25.3597 18.5673 24.6241C18.4201 24.2318 18.4692 23.7904 18.7144 23.3981ZM19.3029 23.7414C19.1557 24.0356 19.2048 24.3789 19.45 24.6241C19.45 24.6241 19.6461 24.8693 19.6952 24.9183C20.2837 25.5559 20.9702 26.0953 21.7549 26.4876C22.0491 26.6348 22.4415 26.5857 22.6867 26.3405C22.9319 26.0953 22.9809 25.703 22.7848 25.4087C22.5395 25.0655 22.2943 24.8202 22.0001 24.526C21.4607 23.9866 20.627 23.349 20.1366 23.2509C19.7933 23.2019 19.45 23.3981 19.3029 23.7414Z" fill="#010101"/>
<path d="M42.9895 12.5601C43.3819 12.5601 43.7251 12.6091 44.0684 12.6091C44.2155 13.2466 44.3136 13.8842 44.4608 14.5217C44.706 15.6987 44.9021 16.9247 45.1473 18.1017H44.2155C44.1175 17.6603 44.0684 17.268 44.0194 16.7776V16.7285L42.401 16.6304C42.303 17.0718 42.1068 17.5132 42.0087 17.9055C42.0087 17.9055 41.3712 17.8565 41.0769 17.8565C41.0279 17.8565 42.352 14.3255 42.9895 12.5601ZM43.4309 13.2957C43.4309 13.3447 42.6462 15.8948 42.5972 15.9439L43.8723 15.9929C43.7742 15.4044 43.4799 13.737 43.4309 13.2957Z" fill="white"/>
<path d="M47.7465 13.1975C47.9917 13.2466 48.335 13.3446 48.6292 13.3937C48.6292 13.3937 47.7465 16.9246 47.3542 18.6901C47.0599 18.641 46.4714 18.4939 46.4714 18.4939C46.5205 18.1997 47.3542 14.6687 47.7465 13.1975Z" fill="white"/>
<path d="M60.9384 20.0142C61.1346 20.2103 61.3798 20.4555 61.576 20.6027C61.576 20.6027 59.0749 23.2508 57.8489 24.5749C57.6527 24.3788 57.1623 23.9865 57.1623 23.9865C57.4075 23.7413 59.9086 21.0931 60.9384 20.0142Z" fill="white"/>
<path d="M56.819 16.8757C57.0642 17.0719 57.3094 17.219 57.5056 17.3661C56.6228 18.5431 55.7891 19.7691 54.9555 20.9461C54.9064 21.0442 54.8574 21.0932 54.7593 21.1913L56.4757 22.4173L56.0343 23.0058C56.0343 23.0058 54.465 21.8779 53.6313 21.2894C54.7102 19.8182 55.7891 18.347 56.819 16.8757Z" fill="white"/>
<path d="M59.2711 25.899C60.6932 24.8201 62.1645 23.6922 63.5866 22.6133L64.2242 23.3979C63.5866 24.5259 62.0173 27.0269 61.9683 27.1741C63.0472 26.3404 64.1261 25.5557 65.205 24.722C65.205 24.722 65.4992 25.1144 65.6954 25.3596C64.2732 26.4875 62.802 27.5664 61.3308 28.6453C61.1346 28.4001 60.6442 27.7626 60.6442 27.7626C60.6442 27.7626 62.4097 25.1144 63.0472 24.0355C62.9001 24.1335 60.6932 25.85 59.7124 26.5365C59.5653 26.2913 59.4182 26.0952 59.2711 25.899Z" fill="white"/>
<path d="M62.3606 30.3618L67.3137 28.0569C67.5099 28.4492 68.5397 30.7541 68.5397 30.7541L67.9022 31.0484C67.657 30.4108 67.3137 29.7733 67.0685 29.1848C66.5781 29.381 66.1367 29.6262 65.6954 29.8223C65.9406 30.4108 66.2348 30.9993 66.48 31.6369L65.7934 31.9311C65.4992 31.3426 65.254 30.7541 64.9598 30.1656C64.4203 30.4108 63.9299 30.656 63.3905 30.9012C63.6847 31.5388 63.9789 32.2253 64.3222 32.8629L63.6847 33.1571L63.4395 32.6177C63.0472 31.833 62.7039 31.0974 62.3606 30.3618Z" fill="white"/>
<path d="M16.0172 26.8308C17.4884 27.9097 18.9596 28.9886 20.4308 30.0675L20.4799 30.1165C20.3818 30.4108 20.1856 30.705 20.0875 30.9993L16.0662 29.9204C17.1451 30.705 18.273 31.4406 19.401 32.2253L19.45 32.2743C19.3029 32.5686 19.2048 32.8628 19.0577 33.1571C17.2432 32.7157 15.4777 32.2743 13.6632 31.833L13.7122 31.7349C13.8103 31.4897 13.9084 31.2445 14.0065 31.0483C15.3796 31.4406 16.8018 31.833 18.175 32.1762C18.0278 32.0782 17.5865 31.7839 17.5374 31.7349C16.5566 31.0483 15.5758 30.4108 14.595 29.7242L14.9873 28.8905C16.4095 29.2828 17.7826 29.6261 19.2048 30.0185L18.7634 29.7242C17.7336 28.9886 16.6547 28.253 15.5758 27.5174L16.0172 26.8308Z" fill="white"/>
<path d="M16.1152 26.978C17.5865 28.0569 19.0577 29.1358 20.5289 30.2147L20.5779 30.2638C20.4799 30.558 20.2837 30.8522 20.1856 31.1465C19.0577 30.8522 16.3604 30.1166 16.1643 30.0676C17.2432 30.8522 18.3711 31.6369 19.4991 32.3725L19.5481 32.4215C19.401 32.7158 19.3029 33.01 19.1558 33.3533C17.3413 32.912 15.5758 32.4706 13.7613 32.0292L13.8103 31.9311C13.9084 31.6859 14.0065 31.4898 14.1046 31.2446C15.4777 31.6369 16.8999 32.0292 18.273 32.3725C18.1259 32.2744 17.6845 31.9802 17.6355 31.9311C16.7037 31.2446 15.7229 30.607 14.7421 29.9205L15.1344 29.0868C16.5566 29.4791 17.9298 29.8714 19.3519 30.2147L18.9106 29.9205C17.8807 29.1849 16.8018 28.4492 15.7229 27.7136L16.1152 26.978Z" fill="#010101"/>
<path d="M54.8574 51.1061H45.1473C43.8723 48.9483 41.077 48.2127 38.9192 49.4877C38.2326 49.88 37.6932 50.4195 37.3008 51.1061H27.4927C27.4927 51.1061 26.8552 51.1061 26.8552 51.6455C26.8552 51.6455 26.8552 52.0869 27.4437 52.0869H36.8104C36.7614 52.234 36.7123 52.3811 36.7123 52.5282H28.7187C28.7187 52.5282 28.0812 52.5282 28.0812 53.0677C28.0812 53.0677 28.0812 53.5091 28.6697 53.5091H36.6633C36.6633 53.6562 36.6633 53.8033 36.7123 53.9014H29.9938C29.9938 53.9014 29.3562 53.9014 29.3562 54.4408C29.3562 54.4408 29.3562 54.8822 29.9447 54.8822H36.9575C37.8403 57.2361 40.4885 58.3641 42.8424 57.4814C44.0194 57.04 44.9512 56.0592 45.4416 54.8822H52.3563C52.9448 54.8822 52.9448 54.4408 52.9448 54.4408C52.9939 53.9014 52.3073 53.9014 52.3073 53.9014H45.6868C45.6868 53.7543 45.7358 53.6071 45.7358 53.5091H53.6314C54.2199 53.46 54.2199 53.0677 54.2199 53.0677C54.2689 52.5282 53.6314 52.5282 53.6314 52.5282H45.6378C45.6378 52.3811 45.5887 52.234 45.5397 52.0869H54.8574C55.4459 52.0869 55.4459 51.6455 55.4459 51.6455C55.4949 51.1061 54.8574 51.057 54.8574 51.1061Z" fill="#231F1F"/>
</g>
<mask id="mask3_33_11731" style="mask-type:luminance" maskUnits="userSpaceOnUse" x="26" y="48" width="30" height="10">
<path d="M37.1537 51.2532H27.3455C27.3455 51.2532 26.708 51.2532 26.757 51.7926C26.757 51.7926 26.757 52.234 27.3455 52.234H36.7123C36.6632 52.3811 36.6142 52.5282 36.6142 52.6754H28.5715C28.5715 52.6754 27.934 52.6754 27.983 53.2148C27.983 53.2148 27.983 53.6562 28.5715 53.6562H36.5161C36.5161 53.8033 36.5161 53.9504 36.5652 54.0485H29.8466C29.8466 54.0485 29.2091 54.0485 29.2091 54.588C29.2091 54.588 29.2091 55.0293 29.7975 55.0293H36.8104C37.4969 56.7948 39.1643 57.9227 41.0279 57.9227C42.8914 57.9227 44.6078 56.7948 45.2454 55.0293H52.1601C52.7486 54.9803 52.7486 54.588 52.7486 54.588C52.7976 54.0485 52.1601 54.0485 52.1601 54.0485H45.4906C45.4906 53.9014 45.5396 53.7543 45.5396 53.6562H53.4842C54.0727 53.6562 54.0727 53.2148 54.0727 53.2148C54.1217 52.6754 53.4352 52.6754 53.4352 52.6754H45.4906C45.4415 52.5282 45.4415 52.3811 45.3925 52.234H54.7102C55.2987 52.185 55.2987 51.7926 55.2987 51.7926C55.3478 51.2532 54.6612 51.2532 54.6612 51.2532H44.9511C44.1174 49.8801 42.6462 48.9973 41.0279 48.9973C39.4586 48.9973 37.9383 49.831 37.1537 51.2532Z" fill="white"/>
</mask>
<g mask="url(#mask3_33_11731)">
<mask id="mask4_33_11731" style="mask-type:luminance" maskUnits="userSpaceOnUse" x="22" y="35" width="38" height="37">
<path d="M44.4174 35.1903L22.2354 52.5208L37.4524 71.9976L59.6344 54.6671L44.4174 35.1903Z" fill="white"/>
</mask>
<g mask="url(#mask4_33_11731)">
<path d="M22.1962 52.5284L44.3626 35.168L59.6143 54.6862L37.4479 71.9975L22.1962 52.5284Z" fill="url(#paint1_linear_33_11731)"/>
</g>
</g>
<mask id="mask5_33_11731" style="mask-type:luminance" maskUnits="userSpaceOnUse" x="0" y="0" width="83" height="84">
<path d="M82.7615 0.545166H0.0789185V83.2278H82.7615V0.545166Z" fill="white"/>
</mask>
<g mask="url(#mask5_33_11731)">
<path d="M18.4201 42.426C18.4201 42.426 18.9105 42.377 19.0577 42.1318C19.1067 41.9847 19.0086 41.6414 18.4201 41.6414L15.1344 41.5923C15.1344 41.5923 13.6142 41.5923 13.1237 40.5134C12.6333 39.4345 13.5651 38.2085 15.1835 38.1595C16.8018 38.1105 20.5289 38.1595 20.5289 38.1595L19.401 39.6307H15.3306C15.3306 39.6307 14.9873 39.6307 14.9382 39.8269C14.8892 39.925 14.9382 40.0721 15.0363 40.0721H18.1749C18.1749 40.0721 19.5971 40.023 20.2837 40.9058C20.9703 41.8375 20.8722 43.3578 18.9596 43.7992C17.9788 43.8973 17.047 43.8973 16.0662 43.8973H12.8785L14.0555 42.426H18.4201Z" fill="#231F1F"/>
<path d="M21.0193 38.2085H22.8338V40.1701L25.531 38.1594H28.1792L24.2069 41.1019L28.2283 43.9462H25.5801L22.8338 41.9846V43.9462H21.0193V38.2085Z" fill="#231F1F"/>
<path d="M28.3754 38.2085H30.6803L32.8381 40.5134L34.8488 38.2085H37.1047L33.7209 42.0337V43.9463H31.9064V42.0337L28.3754 38.2085Z" fill="#231F1F"/>
<path d="M37.1046 39.6797L38.2326 38.2085H47.6974C47.8936 38.2085 50.9341 38.2085 50.4927 40.8077C50.4437 41.1509 50.2475 41.4452 49.9533 41.6904C49.7081 41.9356 49.4138 42.1318 49.1196 42.2789L51.0812 43.9953H48.5801L46.8637 42.5731H44.3626V43.9953H42.5481V41.0038H47.8445C48.2369 41.0529 48.6292 40.7586 48.6292 40.3172C48.6292 40.072 48.3349 39.7288 47.7955 39.7288H41.224V43.9953H39.3605V39.6797H37.1046Z" fill="#231F1F"/>
<path d="M51.3264 43.9462L54.6612 39.2874C54.6612 39.2874 55.3968 38.1104 56.1324 38.1595C56.868 38.2085 57.4565 38.9931 57.4565 38.9931L60.8403 43.9462H54.1217L55.2006 42.426H57.6036L56.1324 40.3663L53.5332 43.9462H51.3264Z" fill="#231F1F"/>
<path d="M61.0365 38.2085L63.3414 38.1594L65.4502 40.3172L67.4608 38.2085H69.7657L66.9214 41.1019L69.6186 43.9462H67.3627L65.4502 41.8865L63.4395 43.9462H61.2327L63.8809 41.1019L61.0365 38.2085Z" fill="#231F1F"/>
<path d="M43.0876 12.7073C43.4799 12.7073 43.8232 12.7563 44.1665 12.7563C44.3136 13.3938 44.4117 14.0314 44.5588 14.6689C44.804 15.8459 45.0002 17.0719 45.2454 18.2489H44.3136C44.2156 17.8075 44.1665 17.4152 44.1175 16.9248V16.8757L42.4991 16.7777C42.401 17.219 42.2049 17.6604 42.1068 18.0527C42.1068 18.0527 41.4693 18.0037 41.175 18.0037C41.126 18.0527 42.4501 14.4727 43.0876 12.7073ZM43.529 13.4919C43.529 13.541 42.7443 16.0911 42.6953 16.1401L43.9704 16.1892C43.8723 15.5516 43.6271 13.8843 43.529 13.4919Z" fill="#010101"/>
<path d="M47.8446 13.3447C48.0898 13.3938 48.4331 13.4918 48.7273 13.5409C48.7273 13.5409 47.8446 17.0718 47.4523 18.8373C47.158 18.7882 46.5695 18.6411 46.5695 18.6411C46.6186 18.3469 47.4523 14.8159 47.8446 13.3447Z" fill="#010101"/>
<path d="M61.0365 20.1614C61.2327 20.3575 61.4779 20.5537 61.674 20.7499C61.674 20.7499 59.173 23.3981 57.9469 24.7222C57.7508 24.526 57.2604 24.1337 57.2604 24.1337C57.5056 23.8885 60.0067 21.2403 61.0365 20.1614Z" fill="#010101"/>
<path d="M56.9171 17.0229C57.1623 17.2191 57.3584 17.3662 57.6036 17.5134C56.7209 18.6903 55.8872 19.9164 55.0535 21.0933C55.0045 21.1914 54.9554 21.2405 54.8574 21.3385L56.5738 22.5645L56.1324 23.153C56.1324 23.153 54.5631 22.0251 53.7294 21.4366C54.8083 19.9654 55.8382 18.4942 56.9171 17.0229Z" fill="#010101"/>
<path d="M53.0428 14.914C53.3371 15.0612 53.6313 15.3064 53.7294 15.6006C53.8275 15.9439 53.8275 16.2381 53.7294 16.5814C53.5823 17.0718 53.19 17.5132 52.6505 17.6113H52.3563C52.6015 17.7584 52.7486 18.0036 52.7976 18.2488C52.7976 18.5431 52.7486 18.8373 52.6015 19.0825C52.5034 19.3277 52.4544 19.5239 52.3563 19.8181C52.3072 20.0143 52.2582 20.2595 52.2582 20.4556C52.1111 20.4066 51.4245 20.0633 51.4245 20.0633C51.4245 19.671 51.5226 19.2787 51.7188 18.9354C51.8659 18.6411 51.964 18.2488 51.9149 17.9055C51.6697 17.5132 51.1793 17.4642 50.787 17.268C50.4927 18.0036 50.1985 18.7392 49.9042 19.4748C49.61 19.3767 49.3648 19.2296 49.0706 19.1806C49.3158 18.3469 49.7571 17.6113 50.0514 16.8266C50.4437 15.9439 50.7379 15.0121 51.1303 14.1294C51.7678 14.4236 52.4053 14.6688 53.0428 14.914ZM52.2582 15.3064C52.062 15.2083 51.8659 15.1592 51.7188 15.0612C51.7188 15.0612 51.2283 16.1401 51.0322 16.7286C51.3755 16.8757 51.6697 16.9738 52.013 17.0718C52.2582 17.0718 52.5034 16.9738 52.6505 16.7286C52.7976 16.4833 52.8467 16.1401 52.8467 15.8458C52.7486 15.5516 52.5034 15.3064 52.1601 15.2083" fill="white"/>
<path d="M53.0919 15.0613C53.3861 15.2084 53.6313 15.4536 53.7785 15.7479C53.8765 16.0421 53.8765 16.4344 53.7785 16.7287C53.6313 17.2191 53.239 17.6605 52.6996 17.7585H52.4053C52.6505 17.9057 52.7976 18.1509 52.8467 18.3961C52.8467 18.6903 52.7976 18.9845 52.6505 19.2298C52.5524 19.475 52.5034 19.6711 52.4053 19.9654C52.3563 20.1615 52.3072 20.4067 52.3072 20.6519C52.1601 20.6029 51.4735 20.2596 51.4735 20.2596C51.4735 19.8673 51.5716 19.475 51.7678 19.1317C51.9149 18.8374 52.013 18.4451 51.9149 18.1018C51.6697 17.7095 51.1793 17.6605 50.787 17.4643C50.4927 18.1999 50.1985 18.9355 49.9042 19.6711C49.61 19.573 49.3648 19.4259 49.0706 19.3769C49.3158 18.5432 49.7571 17.8076 50.0514 17.0229C50.4437 16.1402 50.7379 15.2084 51.1303 14.3257C51.8659 14.5709 52.5034 14.8161 53.0919 15.0613ZM52.3072 15.4536C52.1111 15.3555 51.9149 15.3065 51.7678 15.2084C51.7678 15.2084 51.2774 16.2873 51.0812 16.8758C51.4245 17.0229 51.7188 17.121 52.1111 17.2191C52.3563 17.2191 52.6015 17.121 52.7486 16.8758C52.8957 16.6306 52.9448 16.3364 52.9448 16.0911C52.8957 15.7969 52.6505 15.5517 52.3072 15.4536Z" fill="#010101"/>
<path d="M59.3691 26.0462C60.7913 24.9673 62.2625 23.8394 63.6847 22.7605L64.3222 23.5452C63.6847 24.6731 62.1154 27.1742 62.0664 27.3213C63.1453 26.4876 64.2242 25.7029 65.3031 24.8692C66.9214 23.6432 65.5973 25.2616 65.7935 25.5068C64.3713 26.6347 62.9001 27.7136 61.4288 28.7925C61.2327 28.5473 60.7423 27.9098 60.7423 27.9098C60.7423 27.9098 62.5077 25.2616 63.1453 24.1827C62.9982 24.2808 60.7913 25.9972 59.8105 26.6838C59.6634 26.4386 59.5163 26.2424 59.3691 26.0462Z" fill="#010101"/>
<path d="M62.4587 30.509L67.4118 28.2041C67.608 28.5964 68.6378 30.9013 68.6378 30.9013L68.0003 31.1956C67.7551 30.5581 67.4118 29.9205 67.1666 29.332C66.7252 29.5282 66.2348 29.7734 65.7934 29.9696C66.0387 30.5581 66.3329 31.1465 66.5781 31.7841L65.8915 32.0783C65.5973 31.4898 65.3521 30.9013 65.0578 30.3128C64.5184 30.5581 64.028 30.8033 63.4885 31.0485C63.7828 31.686 64.077 32.3726 64.4203 33.0101L63.7828 33.3043L63.5376 32.7649C63.1453 31.9802 62.802 31.2446 62.4587 30.509Z" fill="#010101"/>
</g>
<mask id="mask6_33_11731" style="mask-type:luminance" maskUnits="userSpaceOnUse" x="12" y="38" width="9" height="7">
<path d="M15.0854 38.3555C13.467 38.4045 12.5352 39.6305 13.0257 40.7094C13.5161 41.7883 15.0363 41.7883 15.0363 41.7883L18.322 41.8374C18.9105 41.8374 19.0086 42.1806 18.9596 42.3278C18.8125 42.573 18.322 42.622 18.322 42.622L14.0555 42.6711L12.9276 44.1423H16.1152C17.096 44.1913 18.0278 44.1423 19.0086 44.0442C20.8722 43.6028 21.0193 42.0826 20.3327 41.1508C19.6461 40.219 18.273 40.3171 18.273 40.3171H15.2325C15.1344 40.3171 15.0363 40.2681 15.0363 40.1209V40.0228C15.0854 39.8267 15.4286 39.8267 15.4286 39.8267H19.45L20.5779 38.3555H15.0854Z" fill="white"/>
</mask>
<g mask="url(#mask6_33_11731)">
<mask id="mask7_33_11731" style="mask-type:luminance" maskUnits="userSpaceOnUse" x="10" y="35" width="14" height="13">
<path d="M19.5689 35.3133L10.4889 39.7419L14.4015 47.764L23.4815 43.3354L19.5689 35.3133Z" fill="white"/>
</mask>
<g mask="url(#mask7_33_11731)">
<path d="M10.4755 39.7776L19.5481 35.3149L23.4713 43.3576L14.3988 47.7713L10.4755 39.7776Z" fill="url(#paint2_linear_33_11731)"/>
</g>
</g>
<mask id="mask8_33_11731" style="mask-type:luminance" maskUnits="userSpaceOnUse" x="20" y="38" width="9" height="7">
<path d="M25.433 38.3555L22.6867 40.3171V38.3555H20.9212V44.0932H22.6867V42.1806L25.433 44.0932H28.1302L24.0598 41.2489L28.0811 38.3555H25.433Z" fill="white"/>
</mask>
<g mask="url(#mask8_33_11731)">
<mask id="mask9_33_11731" style="mask-type:luminance" maskUnits="userSpaceOnUse" x="18" y="35" width="13" height="12">
<path d="M22.2943 46.8886L18.6163 39.3854L26.8551 35.4131L30.5332 42.9163L22.2943 46.8886Z" fill="white"/>
</mask>
<g mask="url(#mask9_33_11731)">
<path d="M22.2943 46.8886L18.6163 39.3854L26.8551 35.4131L30.5332 42.9163L22.2943 46.8886Z" fill="url(#paint3_linear_33_11731)"/>
</g>
</g>
<mask id="mask10_33_11731" style="mask-type:luminance" maskUnits="userSpaceOnUse" x="28" y="38" width="10" height="7">
<path d="M34.7016 38.3555L32.6909 40.7094L30.5332 38.3555H28.2773L31.7592 42.1806V44.0932L33.5737 44.1423V42.2297L37.0065 38.3555H34.7016Z" fill="white"/>
</mask>
<g mask="url(#mask10_33_11731)">
<mask id="mask11_33_11731" style="mask-type:luminance" maskUnits="userSpaceOnUse" x="25" y="34" width="15" height="15">
<path d="M34.257 34.2631L25.5972 40.1042L30.9995 48.1136L39.6594 42.2724L34.257 34.2631Z" fill="white"/>
</mask>
<g mask="url(#mask11_33_11731)">
<path d="M25.6291 40.0719L34.2603 34.2361L39.7038 42.2297L31.0236 48.1146L25.6291 40.0719Z" fill="url(#paint4_linear_33_11731)"/>
</g>
</g>
<mask id="mask12_33_11731" style="mask-type:luminance" maskUnits="userSpaceOnUse" x="36" y="38" width="15" height="7">
<path d="M47.5503 38.3555H38.0855L36.9575 39.8267H39.3115V44.1423H41.175V39.8757H47.6974C48.2369 39.8757 48.5311 40.219 48.5311 40.4642C48.4821 40.8565 48.1388 41.1508 47.7465 41.1508H42.4501V44.1423H44.2155V42.7201H46.7166L48.433 44.1423H50.9341L48.9725 42.4258C49.2667 42.2787 49.561 42.0826 49.8062 41.8374C50.0514 41.5922 50.2475 41.2979 50.3456 40.9546C50.738 38.4536 47.9917 38.3555 47.5503 38.3555Z" fill="white"/>
</mask>
<g mask="url(#mask12_33_11731)">
<mask id="mask13_33_11731" style="mask-type:luminance" maskUnits="userSpaceOnUse" x="34" y="32" width="20" height="18">
<path d="M48.3755 32.7802L34.7996 39.4016L39.7657 49.5835L53.3415 42.9621L48.3755 32.7802Z" fill="white"/>
</mask>
<g mask="url(#mask13_33_11731)">
<path d="M34.7997 39.3854L48.384 32.7649L53.3371 42.9654L39.8019 49.5859L34.7997 39.3854Z" fill="url(#paint5_linear_33_11731)"/>
</g>
</g>
<mask id="mask14_33_11731" style="mask-type:luminance" maskUnits="userSpaceOnUse" x="51" y="38" width="10" height="7">
<path d="M54.5141 39.4342L51.1793 44.0931H53.3862L55.9853 40.5622L57.4565 42.6219H55.0535L53.9746 44.1421H60.6932L57.3094 39.2381C57.3094 39.2381 56.7209 38.4044 55.9853 38.4044H55.9363C55.2007 38.3553 54.5141 39.4833 54.5141 39.4342Z" fill="white"/>
</mask>
<g mask="url(#mask14_33_11731)">
<mask id="mask15_33_11731" style="mask-type:luminance" maskUnits="userSpaceOnUse" x="48" y="34" width="15" height="14">
<path d="M58.8731 34.5511L48.9116 39.4097L53.0177 47.8285L62.9792 42.9699L58.8731 34.5511Z" fill="white"/>
</mask>
<g mask="url(#mask15_33_11731)">
<path d="M48.9235 39.3853L58.8787 34.5303L62.9981 42.9653L53.0429 47.8203L48.9235 39.3853Z" fill="url(#paint6_linear_33_11731)"/>
</g>
</g>
<mask id="mask16_33_11731" style="mask-type:luminance" maskUnits="userSpaceOnUse" x="60" y="38" width="10" height="7">
<path d="M60.8893 38.3555L63.7827 41.2979L61.0855 44.0932H63.3414L65.303 42.0335L67.2646 44.0932H69.4715L66.8233 41.2979L69.6186 38.3555H67.3137L65.303 40.4642L63.2433 38.3555H60.8893Z" fill="white"/>
</mask>
<g mask="url(#mask16_33_11731)">
<mask id="mask17_33_11731" style="mask-type:luminance" maskUnits="userSpaceOnUse" x="58" y="34" width="14" height="14">
<path d="M68.0013 34.9332L58.7009 39.4692L62.6566 47.5795L71.9569 43.0434L68.0013 34.9332Z" fill="white"/>
</mask>
<g mask="url(#mask17_33_11731)">
<path d="M58.7316 39.4836L68.0493 34.9229L71.9726 43.0146L62.6548 47.5754L58.7316 39.4836Z" fill="url(#paint7_linear_33_11731)"/>
</g>
</g>
<path d="M15.6248 55.3235L15.9681 56.01L20.0385 52.2339L19.6952 51.4983L14.2026 52.332L14.5459 53.0185L15.87 52.7733L16.7037 54.4407L15.6248 55.3235ZM16.4095 52.6262L19.0577 52.1849L17.096 53.9994L16.4095 52.6262Z" fill="white"/>
<path d="M17.9297 58.9525L18.4691 59.59L21.5097 58.0697C21.951 57.8736 22.3924 57.6284 22.7847 57.3341C22.4414 57.6774 22.1472 58.0697 21.8529 58.413L19.7932 61.1593L20.3327 61.7968L25.2858 59.4429L24.8444 58.9034L21.1664 60.767L20.4308 61.2083C20.6269 61.0122 20.8231 60.767 21.0193 60.5218L23.4713 57.2851L22.9809 56.6966L19.2538 58.5601C19.1557 58.6092 18.9105 58.7563 18.5182 58.9525C18.7634 58.6582 18.9595 58.462 19.0576 58.3149L21.5587 55.0292L21.1173 54.4897L17.9297 58.9525Z" fill="white"/>
<path d="M26.0704 66.4067L26.708 66.8481L28.4244 61.5517L27.7378 61.0613L23.3242 64.4451L23.9617 64.8865L24.9915 64.0528L26.5118 65.1317L26.0704 66.4067ZM25.4819 63.6604L27.5907 61.993L26.708 64.5432L25.4819 63.6604Z" fill="white"/>
<path d="M32.8871 63.7585L31.563 63.2681L29.6505 68.2212L30.288 68.4664L31.1707 66.2105L31.9554 66.5047C32.3967 66.7009 32.4458 66.9461 32.2496 67.4856C32.0044 67.976 31.8573 68.5154 31.7592 69.0549L32.4458 69.3001C32.4948 68.9568 32.5439 68.5645 32.691 68.2212C32.74 68.0741 32.8381 67.9269 32.8871 67.7308C33.1323 67.0442 33.0833 66.7009 32.5439 66.4067C33.1323 66.5047 33.7208 66.1124 33.868 65.5239C34.2603 64.6902 33.917 64.1508 32.8871 63.7585ZM31.4159 65.6711L32.0534 64.0527L32.7891 64.347C33.1814 64.445 33.4266 64.7883 33.3775 65.1807C33.3775 65.2297 33.3285 65.3278 33.2795 65.3768C33.0343 66.0143 32.5929 66.1124 31.9063 65.8672L31.4159 65.6711Z" fill="white"/>
<path d="M36.8104 69.6925L37.3989 65.573L38.1345 65.6711C38.723 65.7692 39.0172 65.9163 39.1153 66.4067C39.1153 66.8971 39.1153 67.3875 39.0172 67.878C39.0172 68.4664 38.8211 69.0549 38.5759 69.5453C38.3797 69.7905 38.0855 69.8396 37.5951 69.7905L36.8104 69.6925ZM36.0258 70.1829L37.3008 70.379C38.0855 70.4771 38.6249 70.5262 39.0663 69.9867C39.4096 69.5944 39.5076 68.9569 39.6548 68.0741C39.8019 66.8971 39.9 66.1615 39.5076 65.6711C39.1644 65.2788 38.723 65.1807 38.0364 65.0826L36.7614 64.8865L36.0258 70.1829Z" fill="white"/>
<path d="M42.4991 69.202V69.3491C42.5972 70.3299 43.1366 70.7713 44.1665 70.6732C45.1963 70.5751 45.7358 69.9866 45.6377 69.0549C45.5887 68.4173 45.1963 68.1721 44.5098 67.7798C43.627 67.2894 43.0876 67.0932 43.0386 66.5047C43.0386 66.0634 43.3328 65.7201 43.7742 65.7201H43.8232C44.3626 65.6711 44.6079 65.9653 44.6569 66.5047V66.6028L45.3925 66.5538V66.4067C45.2944 65.5239 44.755 65.0826 43.7742 65.1316C42.7933 65.1807 42.2539 65.8182 42.3029 66.6028C42.352 67.3875 42.7933 67.6327 43.627 68.025C44.4607 68.4173 44.9021 68.6135 44.9511 69.1039C45.0002 69.5453 44.6569 69.9376 44.1665 69.9866H44.1174C43.578 70.0357 43.3328 69.7414 43.2347 69.1039V69.0058L42.4991 69.202Z" fill="white"/>
<path d="M53.9746 68.025L56.4266 66.75L56.1324 66.2105L54.3669 67.1423L54.6612 65.0826C54.8083 64.4451 54.7102 63.7585 54.465 63.17C54.1217 62.5325 53.4842 62.3854 52.7486 62.7777C52.013 63.17 51.7187 63.8075 52.1111 64.5432C52.1111 64.5922 52.1601 64.6412 52.1601 64.6412L52.7976 64.298C52.5524 63.7585 52.6015 63.4643 52.9938 63.2681C53.288 63.0719 53.6313 63.17 53.8275 63.4643L53.8765 63.5133C54.0236 63.9056 54.0727 64.347 53.9746 64.7393L53.6313 67.4856L53.9746 68.025Z" fill="white"/>
<path d="M58.094 62.4344C57.2113 61.3064 56.819 60.816 57.4075 60.3256C57.996 59.8352 58.4373 60.3256 59.3201 61.4536C60.2028 62.5815 60.5951 63.0719 60.0066 63.5623C59.4181 64.0527 59.0258 63.5623 58.094 62.4344ZM57.0642 59.8842C56.7209 60.1294 56.4757 60.5708 56.5247 61.0122C56.5738 61.5516 56.9661 62.0911 57.6036 62.8757C58.2412 63.6604 58.6825 64.1998 59.1729 64.347C59.6143 64.445 60.0557 64.3469 60.399 64.0527C60.7422 63.8075 60.9874 63.3661 60.9384 62.9248C60.8894 62.4344 60.497 61.8949 59.9085 61.1593L59.8105 61.0612L59.7124 60.9631C59.1239 60.2275 58.6825 59.7371 58.1921 59.59C57.8488 59.4919 57.3584 59.59 57.0642 59.8842Z" fill="white"/>
<path d="M15.3305 55.3235L15.6738 56.01L19.7442 52.2339L19.3519 51.4983L13.8593 52.332L14.2026 53.0185L15.5267 52.7733L16.3604 54.4407L15.3305 55.3235ZM16.1642 52.6262L18.8124 52.1849L16.8508 53.9994L16.1642 52.6262Z" fill="#020202"/>
<path d="M17.6845 58.9525L18.224 59.59L21.2645 58.0697C21.7058 57.8736 22.1472 57.6284 22.5395 57.3341C22.1963 57.6774 21.853 58.0697 21.5587 58.413L19.499 61.1593L20.0385 61.7968L24.9916 59.4429L24.5502 58.9034L20.8722 60.767L20.1365 61.2083C20.3327 61.0122 20.5289 60.767 20.725 60.5218L23.1771 57.2851L22.6867 56.6966L18.9596 58.5601C18.8615 58.6092 18.6163 58.7563 18.224 58.9525C18.4692 58.6582 18.6653 58.462 18.7634 58.3149L21.2645 55.0292L20.8231 54.4897L17.6845 58.9525Z" fill="#020202"/>
<path d="M25.8253 66.4067L26.4628 66.8481L28.1792 61.5517L27.4926 61.0613L23.079 64.4451L23.7165 64.8865L24.7464 64.0528L26.2666 65.1317L25.8253 66.4067ZM25.2368 63.6604L27.3455 61.993L26.5118 64.4941L25.2368 63.6604Z" fill="#020202"/>
<path d="M32.5929 63.7585L31.2688 63.2681L29.3562 68.2212L29.9937 68.4664L30.8765 66.2105L31.6611 66.5047C32.1025 66.7009 32.1515 66.9461 31.9554 67.4856C31.7102 67.976 31.563 68.5154 31.4649 69.0549L32.1515 69.3001C32.2006 68.9568 32.2986 68.5645 32.3967 68.2212C32.4458 68.0741 32.5438 67.9269 32.5929 67.7308C32.8381 67.0442 32.7891 66.7009 32.2496 66.4067C32.8381 66.5047 33.4266 66.1124 33.5737 65.5239C34.0151 64.6902 33.6718 64.1508 32.5929 63.7585ZM31.1217 65.6711L31.7592 64.0527L32.4948 64.347C32.8871 64.445 33.1323 64.7883 33.0833 65.1807C33.0833 65.2297 33.0343 65.3278 32.9852 65.3768C32.74 66.0143 32.2986 66.1124 31.6121 65.8672L31.1217 65.6711Z" fill="#020202"/>
<path d="M36.5652 69.6925L37.1537 65.573L37.8893 65.6711C38.4778 65.7692 38.772 65.9163 38.8701 66.4067C38.9191 66.8971 38.8701 67.3875 38.772 67.878C38.723 68.4664 38.5758 69.0549 38.3306 69.5453C38.1345 69.7905 37.8402 69.8396 37.3498 69.7905L36.5652 69.6925ZM35.7805 70.1829L37.0556 70.379C37.8402 70.4771 38.3797 70.5262 38.821 69.9867C39.1643 69.5944 39.2624 68.9569 39.4095 68.0741C39.5566 66.8971 39.6547 66.1615 39.2624 65.6711C38.9191 65.2788 38.4778 65.1807 37.7912 65.0826L36.5161 64.8865L35.7805 70.1829Z" fill="#020202"/>
<path d="M42.2539 69.202V69.3491C42.352 70.3299 42.8915 70.7713 43.9213 70.6732C44.9512 70.5751 45.4906 69.9866 45.3925 69.0549C45.3435 68.4173 44.9512 68.1721 44.2646 67.7798C43.3819 67.2894 42.8424 67.0932 42.7934 66.5047C42.7934 66.0634 43.0876 65.7201 43.529 65.7201H43.578C44.0684 65.6711 44.3627 65.9653 44.4117 66.5047V66.6028L45.1473 66.5538V66.4067C45.0492 65.5239 44.5098 65.0826 43.529 65.1316C42.5482 65.1807 42.0087 65.8182 42.0578 66.6028C42.1068 67.3875 42.5482 67.6327 43.3819 68.025C44.2156 68.4173 44.6569 68.6135 44.706 69.1039C44.755 69.5453 44.4117 69.9376 43.9703 69.9866H43.9213C43.3819 70.0357 43.1367 69.7414 43.0386 69.1039V69.0058L42.2539 69.202Z" fill="#020202"/>
<path d="M53.6804 68.025L56.1324 66.75L55.8381 66.2105L54.0727 67.1423L54.3669 65.0826C54.514 64.4451 54.416 63.7585 54.1708 63.17C53.8275 62.5325 53.1899 62.3854 52.4543 62.7777C51.7187 63.17 51.4245 63.8075 51.8168 64.5432L51.8658 64.6412L52.5034 64.298C52.2582 63.7585 52.3072 63.4643 52.6995 63.2681C52.9938 63.0719 53.3371 63.17 53.5332 63.4643L53.5823 63.5133C53.7294 63.9056 53.7784 64.347 53.6804 64.7393L53.3371 67.4856L53.6804 68.025Z" fill="#020202"/>
<path d="M63.7828 60.4728L65.4501 58.266L64.9597 57.8737L63.7828 59.443L63.1943 57.4323C63.0471 56.7948 62.7039 56.2063 62.2135 55.7649C61.625 55.3236 60.9874 55.4707 60.497 56.1082C60.0066 56.7457 60.0066 57.4814 60.6442 57.9718L60.7422 58.0698L61.1836 57.4814C60.7422 57.089 60.6442 56.7948 60.8894 56.4515C61.0855 56.1573 61.4288 56.0592 61.723 56.2553L61.7721 56.3044C62.0663 56.5986 62.2625 56.9419 62.3606 57.3833L63.1943 60.0315L63.7828 60.4728Z" fill="white"/>
<path d="M63.5376 60.571L65.2049 58.3642L64.7145 57.9718L63.5376 59.5411L62.9491 57.5305C62.8019 56.8929 62.4587 56.3044 62.0173 55.8631C61.4288 55.4217 60.7913 55.5688 60.3009 56.2064C59.8105 56.8439 59.8105 57.5795 60.448 58.0699L60.5461 58.168L60.9874 57.5795C60.5461 57.1872 60.448 56.8929 60.6932 56.5496C60.8894 56.2554 61.2817 56.1573 61.5269 56.3535L61.5759 56.4025C61.8702 56.6968 62.0663 57.0891 62.1644 57.4814L62.9981 60.1296L63.5376 60.571Z" fill="#020202"/>
<path d="M57.8488 62.4344C56.9171 61.3064 56.5738 60.816 57.1623 60.3256C57.7508 59.8352 58.1921 60.3256 59.0749 61.4536C59.9576 62.5815 60.3499 63.0719 59.7614 63.5623C59.1729 64.0527 58.7806 63.5623 57.8488 62.4344ZM56.819 59.8842C56.4757 60.1294 56.2795 60.5708 56.2795 61.0122C56.3286 61.5516 56.7209 62.0911 57.3584 62.8757C57.996 63.6604 58.4373 64.1998 58.9277 64.347C59.3691 64.445 59.8105 64.3469 60.1538 64.0527C60.497 63.8075 60.7422 63.3661 60.6932 62.9248C60.6442 62.4344 60.2518 61.8949 59.6633 61.1593L59.5653 61.0612L59.4672 60.9631C58.8787 60.2275 58.4373 59.7371 57.9469 59.59C57.5546 59.4919 57.1132 59.59 56.819 59.8842Z" fill="#020202"/>
<path d="M67.8532 54.1466L63.2924 51.7437L63.0472 52.185C63.1453 52.5283 63.1453 52.9206 63.1453 53.313L63.7337 53.6562C63.7337 53.362 63.6847 53.0187 63.6357 52.7245L67.5099 54.7351L67.8532 54.1466Z" fill="white"/>
<path d="M67.706 54.2936L63.1452 51.8906L62.9 52.332C62.9981 52.6753 62.9981 53.0676 62.9981 53.4599L63.6356 53.8032C63.6356 53.509 63.5866 53.1657 63.4885 52.8714L67.3627 54.8821L67.706 54.2936Z" fill="#010101"/>
<defs>
<linearGradient id="paint0_linear_33_11731" x1="25.1526" y1="24.3417" x2="65.6423" y2="69.7386" gradientUnits="userSpaceOnUse">
<stop stop-color="#C6952C"/>
<stop offset="0.11" stop-color="#CB9D2E"/>
<stop offset="0.28" stop-color="#D7B334"/>
<stop offset="0.42" stop-color="#E5CC3A"/>
<stop offset="0.64" stop-color="#D5B033"/>
<stop offset="0.86" stop-color="#CA9C2E"/>
<stop offset="1" stop-color="#C6952C"/>
</linearGradient>
<linearGradient id="paint1_linear_33_11731" x1="35.7849" y1="46.9607" x2="47.3124" y2="61.7152" gradientUnits="userSpaceOnUse">
<stop stop-color="#E1E2E3"/>
<stop offset="0.16" stop-color="#EFF0F0"/>
<stop offset="0.37" stop-color="white"/>
<stop offset="0.51" stop-color="#D9DBDC"/>
<stop offset="0.59" stop-color="#F1F2F3"/>
<stop offset="0.64" stop-color="white"/>
<stop offset="0.67" stop-color="#FBFBFB"/>
<stop offset="0.71" stop-color="#EFEFF0"/>
<stop offset="0.74" stop-color="#D9DBDC"/>
<stop offset="0.75" stop-color="#DFE0E1"/>
<stop offset="0.79" stop-color="#EAEBEB"/>
<stop offset="0.85" stop-color="#F1F1F1"/>
<stop offset="1" stop-color="#F3F3F3"/>
</linearGradient>
<linearGradient id="paint2_linear_33_11731" x1="18.5138" y1="44.6541" x2="15.3902" y2="38.2496" gradientUnits="userSpaceOnUse">
<stop stop-color="#C5C6C8"/>
<stop offset="0.02" stop-color="#D7D8D9"/>
<stop offset="0.05" stop-color="#E9E9EA"/>
<stop offset="0.09" stop-color="#F6F6F6"/>
<stop offset="0.14" stop-color="#FDFDFD"/>
<stop offset="0.25" stop-color="white"/>
<stop offset="0.39" stop-color="#E1E1E1"/>
<stop offset="0.49" stop-color="#CECECE"/>
<stop offset="0.51" stop-color="#D3D3D3"/>
<stop offset="0.61" stop-color="#F3F3F3"/>
<stop offset="0.67" stop-color="white"/>
<stop offset="0.75" stop-color="#FCFCFC"/>
<stop offset="0.81" stop-color="#F3F3F3"/>
<stop offset="0.86" stop-color="#E2E2E3"/>
<stop offset="0.91" stop-color="#CCCCCD"/>
<stop offset="0.95" stop-color="#B2B2B4"/>
<stop offset="1" stop-color="#B2B2B4"/>
</linearGradient>
<linearGradient id="paint3_linear_33_11731" x1="12.7726" y1="15.0872" x2="9.06535" y2="7.57618" gradientUnits="userSpaceOnUse">
<stop stop-color="#C5C6C8"/>
<stop offset="0.12" stop-color="#D9D9DB"/>
<stop offset="0.3" stop-color="white"/>
<stop offset="0.38" stop-color="#E1E1E1"/>
<stop offset="0.44" stop-color="#CECECE"/>
<stop offset="0.46" stop-color="#D3D3D3"/>
<stop offset="0.54" stop-color="#F3F3F3"/>
<stop offset="0.58" stop-color="white"/>
<stop offset="0.68" stop-color="#FCFCFC"/>
<stop offset="0.76" stop-color="#F3F3F3"/>
<stop offset="0.83" stop-color="#E2E2E3"/>
<stop offset="0.89" stop-color="#CCCCCD"/>
<stop offset="0.95" stop-color="#B2B2B4"/>
<stop offset="1" stop-color="#B2B2B4"/>
</linearGradient>
<linearGradient id="paint4_linear_33_11731" x1="34.5702" y1="44.0346" x2="30.2345" y2="37.6068" gradientUnits="userSpaceOnUse">
<stop stop-color="#C5C6C8"/>
<stop offset="0.1" stop-color="#D9D9DB"/>
<stop offset="0.27" stop-color="white"/>
<stop offset="0.28" stop-color="#F6F6F6"/>
<stop offset="0.34" stop-color="#E0E0E0"/>
<stop offset="0.4" stop-color="#D3D3D3"/>
<stop offset="0.45" stop-color="#CECECE"/>
<stop offset="0.49" stop-color="#D6D6D6"/>
<stop offset="0.56" stop-color="#EAEAEA"/>
<stop offset="0.61" stop-color="white"/>
<stop offset="0.71" stop-color="#FCFCFC"/>
<stop offset="0.78" stop-color="#F3F3F3"/>
<stop offset="0.84" stop-color="#E2E2E3"/>
<stop offset="0.9" stop-color="#CCCCCD"/>
<stop offset="0.95" stop-color="#B2B2B4"/>
<stop offset="1" stop-color="#B2B2B4"/>
</linearGradient>
<linearGradient id="paint5_linear_33_11731" x1="46.146" y1="45.5343" x2="41.3993" y2="35.802" gradientUnits="userSpaceOnUse">
<stop stop-color="#C5C6C8"/>
<stop offset="0.11" stop-color="#D9D9DB"/>
<stop offset="0.27" stop-color="white"/>
<stop offset="0.41" stop-color="#E7E7E6"/>
<stop offset="0.54" stop-color="#CECECE"/>
<stop offset="0.58" stop-color="#D5D5D5"/>
<stop offset="0.64" stop-color="#E8E8E8"/>
<stop offset="0.69" stop-color="white"/>
<stop offset="0.71" stop-color="#F9F9F9"/>
<stop offset="0.89" stop-color="#C6C6C7"/>
<stop offset="0.97" stop-color="#B2B2B4"/>
<stop offset="1" stop-color="#B2B2B4"/>
</linearGradient>
<linearGradient id="paint6_linear_33_11731" x1="58.4537" y1="46.3666" x2="55.2183" y2="39.733" gradientUnits="userSpaceOnUse">
<stop stop-color="#C5C6C8"/>
<stop offset="0.1" stop-color="#E2E2E3"/>
<stop offset="0.2" stop-color="#F7F7F8"/>
<stop offset="0.27" stop-color="white"/>
<stop offset="0.41" stop-color="#E1E1E1"/>
<stop offset="0.51" stop-color="#CECECE"/>
<stop offset="0.64" stop-color="#D0D0D0"/>
<stop offset="0.7" stop-color="#D7D7D7"/>
<stop offset="0.74" stop-color="#E4E4E4"/>
<stop offset="0.77" stop-color="#F6F6F6"/>
<stop offset="0.79" stop-color="white"/>
<stop offset="0.83" stop-color="#F8F8F9"/>
<stop offset="0.89" stop-color="#E6E6E6"/>
<stop offset="0.96" stop-color="#C7C7C9"/>
<stop offset="1" stop-color="#B2B2B4"/>
</linearGradient>
<linearGradient id="paint7_linear_33_11731" x1="67.0953" y1="44.8842" x2="63.1763" y2="36.8489" gradientUnits="userSpaceOnUse">
<stop stop-color="#C5C6C8"/>
<stop offset="0.12" stop-color="#D9D9DB"/>
<stop offset="0.3" stop-color="white"/>
<stop offset="0.38" stop-color="#E1E1E1"/>
<stop offset="0.44" stop-color="#CECECE"/>
<stop offset="0.46" stop-color="#D3D3D3"/>
<stop offset="0.54" stop-color="#F3F3F3"/>
<stop offset="0.58" stop-color="white"/>
<stop offset="0.68" stop-color="#FCFCFC"/>
<stop offset="0.76" stop-color="#F3F3F3"/>
<stop offset="0.83" stop-color="#E2E2E3"/>
<stop offset="0.89" stop-color="#CCCCCD"/>
<stop offset="0.95" stop-color="#B2B2B4"/>
<stop offset="1" stop-color="#B2B2B4"/>
</linearGradient>
</defs>
</svg>
