<svg width="205" height="30" viewBox="0 0 205 30" fill="none" xmlns="http://www.w3.org/2000/svg">
<g clip-path="url(#clip0_33_8771)">
<g clip-path="url(#clip1_33_8771)">
<path d="M5.92365 16.9273H2.56633L4.30716 13.197L5.92365 16.9273ZM7.1671 19.9116H8.03752L4.6802 12.3265H3.80979L0.328125 19.9116H1.19854L2.1933 17.549H6.17234L7.1671 19.9116Z" fill="white"/>
<path d="M18.6068 14.4405C18.4824 13.197 17.4877 12.8239 16.2442 12.8239C15.0008 12.8239 14.1303 13.3213 14.1303 14.1918C14.1303 15.1865 15.0008 15.4352 16.8659 15.6839C18.2337 15.9326 19.6015 16.1813 19.6015 17.6734C19.6015 19.5386 17.8607 20.036 16.4929 20.036C14.6277 20.036 13.1356 19.4143 13.0112 17.3004H13.7573C13.8816 18.9169 15.0008 19.2899 16.3685 19.2899C17.4877 19.2899 18.7311 19.0412 18.7311 17.7977C18.7311 16.6786 17.3633 16.5543 15.9955 16.3056C14.1303 16.057 13.2599 15.5595 13.2599 14.3161C13.2599 12.6996 14.7521 12.0779 16.2442 12.0779C17.8607 12.0779 19.3528 12.5753 19.4772 14.4405H18.6068Z" fill="white"/>
<path d="M23.705 13.0726H20.7207V12.3265H27.4353V13.0726H24.4511V19.9116H23.705V13.0726Z" fill="white"/>
<path d="M33.5281 16.9273H30.1708L31.9117 13.197L33.5281 16.9273ZM34.7716 19.9116H35.7664L32.2847 12.3265H31.4143L27.9326 19.9116H28.803L29.7978 17.549H33.7768L34.7716 19.9116Z" fill="white"/>
<path d="M38.1289 13.0726H41.4862C42.2323 13.0726 43.1027 13.3214 43.1027 14.4405C43.1027 15.5596 42.3566 15.9325 41.4862 15.9325H38.1289V13.0726ZM37.3828 19.9116H38.1289V16.5543H41.2375C42.6053 16.5543 43.1027 17.0517 43.1027 18.2951C43.1027 19.1655 43.227 19.6629 43.3514 19.7873H44.2218C44.0974 19.6629 43.9731 18.6682 43.9731 18.1708C43.9731 16.9274 43.7244 16.1813 42.6053 16.0569C43.6001 15.8082 44.0974 15.0622 44.0974 14.1918C44.0974 12.5753 42.9783 12.0779 41.6105 12.0779H37.5072V19.9116H37.3828Z" fill="white"/>
<path d="M54.6668 16.9273H51.3095L53.0503 13.197L54.6668 16.9273ZM55.9103 19.9116H56.905L53.4234 12.3265H52.5529L49.0713 19.9116H49.9417L50.9365 17.549H54.9155L55.9103 19.9116Z" fill="white"/>
<path d="M58.3972 12.3265H59.1433V19.1655H63.9927V19.9116H58.3972V12.3265Z" fill="white"/>
<path d="M65.6094 12.3265H66.3554V19.1655H71.2049V19.9116H65.6094V12.3265Z" fill="white"/>
<path d="M72.8213 12.3265H73.5674V19.9116H72.8213V12.3265Z" fill="white"/>
<path d="M80.7794 16.9273H77.422L79.1629 13.197L80.7794 16.9273ZM82.1472 19.9116H83.0176L79.5359 12.3265H78.6655L75.1838 19.9116H76.0543L77.049 17.549H81.0281L82.1472 19.9116Z" fill="white"/>
<path d="M84.5098 12.3265H85.5045L90.8514 18.7925V12.3265H91.5974V19.9116H90.727L85.3802 13.4456V19.9116H84.6341V12.3265H84.5098Z" fill="white"/>
<path d="M101.421 17.0516C101.296 18.7925 99.8042 20.1603 97.6903 20.1603C95.2034 20.1603 93.5869 18.6681 93.5869 16.1812C93.5869 14.4404 94.706 12.2021 97.6903 12.2021C99.3068 12.2021 101.172 12.9482 101.421 14.9378H100.675C100.426 13.4456 99.1824 12.9483 97.8146 12.9483C95.9495 12.9483 94.5817 13.943 94.5817 16.1812C94.5817 17.922 95.4521 19.4142 97.8146 19.4142C99.6798 19.4142 100.55 18.5438 100.799 17.0516H101.421Z" fill="white"/>
<path d="M103.535 12.3265H109.628V13.0726H104.405V15.6839H109.503V16.4299H104.405V19.2898H109.752V20.0359H103.659V12.3265H103.535Z" fill="white"/>
<path d="M123.305 12.3265H124.425V19.9116H123.678V13.3213L120.321 19.9116H119.575L116.218 13.3213V19.9116H115.472V12.3265H116.591L119.948 18.9168L123.305 12.3265Z" fill="white"/>
<path d="M126.911 12.3265H133.004V13.0726H127.782V15.6839H132.88V16.4299H127.782V19.2898H133.128V20.0359H127.035V12.3265H126.911Z" fill="white"/>
<path d="M142.827 12.3265H143.946V19.9116H143.2V13.3213L139.843 19.9116H139.097L135.74 13.3213V19.9116H134.994V12.3265H136.113L139.47 18.9168L142.827 12.3265Z" fill="white"/>
<path d="M147.055 13.0727H150.412C151.283 13.0727 151.905 13.3213 151.905 14.3161C151.905 15.3109 151.159 15.6839 150.164 15.6839H147.055V13.0727ZM146.309 19.9116H150.537C151.656 19.9116 153.024 19.2899 153.024 17.7977C153.024 16.803 152.402 16.0569 151.407 15.9326C152.278 15.6839 152.775 15.0622 152.775 14.3161C152.775 13.197 152.153 12.4509 150.661 12.4509H146.309V19.9116ZM147.055 16.3057H150.537C151.407 16.3057 152.153 16.5543 152.153 17.6734C152.153 18.6682 151.407 19.1656 150.412 19.1656H147.055V16.3057Z" fill="white"/>
<path d="M155.138 12.3265H161.231V13.0726H156.008V15.6839H161.106V16.4299H156.008V19.2898H161.355V20.0359H155.138V12.3265Z" fill="white"/>
<path d="M164.09 13.0726H167.448C168.194 13.0726 169.064 13.3214 169.064 14.4405C169.064 15.5596 168.318 15.9325 167.448 15.9325H164.09V13.0726ZM163.344 19.9116H164.09V16.5543H167.199C168.567 16.5543 169.064 17.0517 169.064 18.2951C169.064 19.1655 169.188 19.6629 169.313 19.7873H170.183C170.059 19.6629 169.935 18.6682 169.935 18.1708C169.935 16.9274 169.686 16.1813 168.567 16.0569C169.561 15.8082 170.059 15.0622 170.059 14.1918C170.059 12.5753 168.94 12.0779 167.572 12.0779H163.469V19.9116H163.344Z" fill="white"/>
<path d="M182.743 10.7102C183.489 9.71542 184.235 8.7206 185.105 7.85018C185.976 6.97977 186.97 6.10935 187.841 5.36328L186.846 9.59104L182.743 10.7102Z" fill="#D9D9D9"/>
<path d="M189.955 12.4509C188.711 12.3266 187.468 12.0779 186.224 11.8292C184.981 11.5805 183.862 11.0832 182.618 10.7101L186.722 9.46667L189.955 12.4509Z" fill="#262626"/>
<path d="M187.965 5.36328C188.462 6.48239 188.96 7.60155 189.208 8.845C189.581 10.0885 189.83 11.3319 189.954 12.451L186.846 9.46673L187.965 5.36328Z" fill="#808080"/>
<path d="M181.25 19.2899C180.504 18.2951 179.882 17.3003 179.261 16.1812C178.639 15.0621 178.142 13.943 177.769 12.6996L181.375 14.9378L181.25 19.2899Z" fill="#808080"/>
<path d="M185.229 12.9484C184.732 14.0675 184.11 15.1866 183.488 16.3057C182.866 17.4248 182.12 18.4195 181.25 19.2899L181.374 14.9379L185.229 12.9484Z" fill="#262626"/>
<path d="M177.769 12.6996C179.012 12.5753 180.255 12.5753 181.499 12.5753C182.742 12.5753 183.986 12.6996 185.229 12.9483L181.375 14.9378L177.769 12.6996Z" fill="#D9D9D9"/>
<path d="M189.084 23.269C187.965 23.642 186.721 24.0151 185.478 24.1394C184.234 24.3881 182.991 24.5125 181.748 24.5125L185.105 21.7769L189.084 23.269Z" fill="#262626"/>
<path d="M184.234 17.5492C185.105 18.4196 185.975 19.29 186.846 20.2847C187.716 21.2795 188.338 22.2743 189.084 23.269L184.98 21.7769L184.234 17.5492Z" fill="#808080"/>
<path d="M181.623 24.6368C181.872 23.3933 182.245 22.2742 182.618 21.0308C182.991 19.7873 183.613 18.6682 184.11 17.6735L184.856 21.9012L181.623 24.6368Z" fill="#D9D9D9"/>
<path d="M195.301 17.176C195.301 18.4195 195.177 19.6629 195.053 20.9064C194.928 22.1498 194.555 23.3933 194.306 24.5124L192.69 20.5334L195.301 17.176Z" fill="#808080"/>
<path d="M188.338 20.036C189.457 19.4143 190.576 18.9169 191.695 18.4195C192.814 17.9221 194.058 17.5491 195.301 17.3004L192.69 20.6577L188.338 20.036Z" fill="#D9D9D9"/>
<path d="M194.182 24.6367C193.063 24.015 192.068 23.3933 191.073 22.5229C190.079 21.7768 189.208 20.9064 188.338 20.036L192.566 20.6577L194.182 24.6367Z" fill="#262626"/>
<path d="M191.446 9.46667C192.565 9.83971 193.809 10.3371 194.928 10.8344C196.047 11.3318 197.166 12.0779 198.161 12.6996L193.809 12.9483L191.446 9.46667Z" fill="#808080"/>
<path d="M191.944 16.803C191.695 15.5595 191.446 14.3161 191.446 13.0726C191.322 11.8292 191.322 10.5857 191.446 9.34229L193.809 12.9483L191.944 16.803Z" fill="#D9D9D9"/>
<path d="M198.037 12.6996C197.166 13.57 196.171 14.3161 195.052 15.0622C194.058 15.8082 192.938 16.43 191.819 16.9273L193.685 13.0726L198.037 12.6996Z" fill="#262626"/>
<path d="M200.524 10.7101H199.653V10.4614H201.767V10.7101H200.897V13.197H200.524V10.7101Z" fill="white"/>
<path d="M204.503 11.9536C204.503 11.5805 204.503 11.0832 204.503 10.7101C204.378 11.0832 204.254 11.3318 204.129 11.8292L203.632 13.197H203.383L202.886 11.8292C202.762 11.4562 202.637 11.0832 202.513 10.7101C202.513 11.0832 202.513 11.5805 202.513 11.9536L202.389 13.197H202.016L202.264 10.337H202.762L203.259 11.7049C203.383 12.0779 203.508 12.3266 203.508 12.6996C203.632 12.4509 203.632 12.0779 203.756 11.7049L204.254 10.337H204.751L204.876 13.197H204.503V11.9536Z" fill="white"/>
</g>
</g>
<defs>
<clipPath id="clip0_33_8771">
<rect width="204.672" height="29" fill="white" transform="translate(0.328125 0.5)"/>
</clipPath>
<clipPath id="clip1_33_8771">
<rect width="204.672" height="19.2735" fill="white" transform="translate(0.328125 5.36328)"/>
</clipPath>
</defs>
</svg>
