<svg width="126" height="18" viewBox="0 0 126 18" fill="none" xmlns="http://www.w3.org/2000/svg">
<g clip-path="url(#clip0_33_11644)">
<g clip-path="url(#clip1_33_11644)">
<path fill-rule="evenodd" clip-rule="evenodd" d="M116.613 0.287354C111.771 0.287354 107.85 4.02141 107.85 8.62985C107.85 12.6879 110.888 16.0616 114.922 16.818C115.602 16.9488 116.034 17.0495 116.391 17.4893C116.824 16.7006 116.922 15.0316 116.922 14.0901V12.5044C116.922 11.9532 117.209 11.8464 117.739 12.1433C118.714 12.6879 119.73 13.2516 119.73 13.2516C119.764 12.9432 120.034 12.6831 120.618 12.8136C121.162 12.9432 121.77 13.0782 121.77 13.0782C121.77 13.0782 121.443 12.34 121.296 12.0134C121.027 11.4166 121.284 11.1303 121.543 11.0481C121.543 11.0481 121.172 10.7967 120.927 10.6255C120.404 10.2593 120.526 9.90299 121.036 9.68453C121.733 9.38891 122.6 8.99705 122.6 8.99705C122.324 8.83745 122.001 8.38275 122.363 7.85966C122.718 7.33789 123.254 6.61541 123.254 6.61541C123.254 6.61541 122.31 6.62045 121.68 6.61541C121.11 6.60375 120.969 6.1525 120.974 5.82666C120.974 5.82666 120.045 6.48471 119.382 6.93251C118.823 7.30793 118.313 6.94099 118.398 6.29461C118.531 5.28209 118.651 4.16193 118.651 4.16193C118.304 4.39259 117.713 4.38755 117.451 3.81965C117.064 2.98211 116.613 2.00591 116.613 2.00591C116.613 2.00591 116.17 2.98211 115.781 3.81965C115.523 4.38755 114.928 4.39259 114.585 4.16193C114.585 4.16193 114.701 5.28209 114.835 6.29461C114.922 6.94099 114.41 7.30793 113.854 6.93251C113.189 6.48471 112.257 5.82666 112.257 5.82666C112.263 6.1525 112.126 6.60375 111.555 6.61541C110.924 6.62045 109.981 6.61541 109.981 6.61541C109.981 6.61541 110.519 7.33789 110.877 7.85966C111.234 8.38275 110.91 8.83745 110.64 8.99705C110.64 8.99705 111.504 9.38891 112.199 9.68453C112.71 9.90299 112.835 10.2593 112.304 10.6255C112.062 10.7967 111.684 11.0481 111.684 11.0481C111.951 11.1303 112.205 11.4166 111.936 12.0134C111.793 12.34 111.462 13.0782 111.462 13.0782C111.462 13.0782 112.071 12.9432 112.617 12.8136C113.201 12.6831 113.473 12.9432 113.507 13.2516C113.507 13.2516 114.519 12.6879 115.496 12.1433C116.024 11.8464 116.309 11.9532 116.312 12.5044V13.8677C116.312 14.6551 116.171 15.5165 115.871 15.9773C112.132 15.5682 109.04 12.5771 109.033 8.62985C109.028 4.56704 112.427 1.27018 116.613 1.27018C120.799 1.27018 124.193 4.56704 124.193 8.62985C124.193 12.4275 121.242 15.5316 117.458 15.9418V16.9379C121.904 16.5344 125.381 12.9676 125.381 8.62985C125.381 4.02141 121.454 0.287354 116.613 0.287354Z" fill="#F01428"/>
<path fill-rule="evenodd" clip-rule="evenodd" d="M5.98235 2.55697L0.667603 15.2195H3.99601L4.96187 12.6392H9.79249L10.814 15.2195H14.214L8.95283 2.55697H5.98235ZM45.6523 2.21649C49.6446 2.21649 52.5541 4.7922 52.5541 8.8346C52.5541 12.8046 49.6931 15.5598 45.6523 15.5598C41.6263 15.5598 38.7685 12.7985 38.7685 8.8346C38.7685 4.82137 41.651 2.21649 45.6523 2.21649ZM32.4103 2.55699C35.1258 2.55699 37.2571 3.66814 37.2571 6.38437C37.2571 8.11804 36.256 9.30528 34.6279 9.80054L37.9367 15.2195H34.3598L31.602 10.1783H30.5441V15.2195H27.5575V2.55699H32.4103ZM59.1214 2.55697C61.9511 2.55697 64.0755 3.61456 64.0755 6.45593C64.0755 9.29041 61.8392 10.4442 59.0498 10.4442H57.5298V15.2195H54.4713V2.55697H59.1214ZM68.9259 2.55697V12.5547H73.8294V15.2195H65.8496V2.55697H68.9259ZM83.6497 2.55697L88.9109 15.2195H85.5109L84.4894 12.6392H79.6588L78.6929 15.2195H75.3645L80.6793 2.55697H83.6497ZM93.9597 2.55697L99.1119 10.8199H99.1662L99.0936 2.55697H102.105V15.2195H98.5856L93.4153 6.93899H93.361L93.4336 15.2195H90.4221V2.55697H93.9597ZM22.6143 12.6393L25.6879 15.2193H18.4041C15.3798 15.2182 14.9367 12.6393 14.9367 12.6393H22.6143ZM45.6523 4.9701C43.6172 4.9701 42.0407 6.50625 42.0407 8.85236C42.0407 11.1176 43.4997 12.8065 45.6523 12.8065C47.715 12.8065 49.2819 11.2168 49.2819 8.85236C49.2819 6.66904 47.833 4.9701 45.6523 4.9701ZM7.41403 5.93734L8.95071 10.1783H5.84236L7.41403 5.93734ZM22.0886 7.59839L25.1623 10.1783H18.4039C15.3796 10.177 14.9366 7.59839 14.9366 7.59839H22.0886ZM82.1109 5.93734L80.5393 10.1783H83.6476L82.1109 5.93734ZM59.1712 4.97175H57.5298V7.97617H58.9914C60.1909 7.97617 61.2201 7.61374 61.2201 6.41033C61.2201 5.29653 60.285 4.97175 59.1712 4.97175ZM32.1855 4.97177H30.5441V7.97593H32.006C33.2052 7.97593 34.2347 7.61377 34.2347 6.41036C34.2347 5.29656 33.2996 4.97177 32.1855 4.97177ZM22.6143 2.55697L25.6879 5.13719H18.4041C15.3798 5.13586 14.9367 2.55697 14.9367 2.55697H22.6143Z" fill="white"/>
</g>
</g>
<defs>
<clipPath id="clip0_33_11644">
<rect width="124.875" height="17.5" fill="white" transform="translate(0.634277 0.25)"/>
</clipPath>
<clipPath id="clip1_33_11644">
<rect width="124.875" height="17.4984" fill="white" transform="translate(0.634277 0.250793)"/>
</clipPath>
</defs>
</svg>
